M48
;DRILL file {KiCad 4.0.7} date 12/25/17 13:46:10
;FORMAT={-:-/ absolute / inch / decimal}
FMAT,2
INCH,TZ
T1C0.016
T2C0.039
%
G90
G05
M72
T1
X5.725Y-4.4
X5.725Y-4.55
X5.725Y-4.7
X5.725Y-4.85
X5.725Y-5.
X5.725Y-5.15
X5.725Y-5.3
X5.725Y-5.45
X5.725Y-5.6
X5.725Y-5.75
T2
X4.475Y-4.195
X4.475Y-4.295
X4.475Y-4.395
X4.475Y-4.495
X4.475Y-4.595
X4.475Y-4.695
X4.475Y-4.795
X4.475Y-5.385
X4.475Y-5.485
X4.475Y-5.8
X4.475Y-5.9
X4.65Y-4.1
X4.65Y-4.2
X4.65Y-4.3
X4.65Y-4.4
X4.65Y-4.5
X4.65Y-4.6
X4.65Y-4.7
X4.65Y-4.8
X4.65Y-4.9
X4.65Y-5.
X4.65Y-5.1
X4.65Y-5.2
X4.65Y-5.3
X4.65Y-5.4
X4.65Y-5.5
X4.65Y-5.6
X4.65Y-5.7
X4.65Y-5.8
X4.65Y-5.9
X4.65Y-6.
X5.25Y-4.1
X5.25Y-4.2
X5.25Y-4.3
X5.25Y-4.4
X5.25Y-4.5
X5.25Y-4.6
X5.25Y-4.7
X5.25Y-4.8
X5.25Y-4.9
X5.25Y-5.
X5.25Y-5.1
X5.25Y-5.2
X5.25Y-5.3
X5.25Y-5.4
X5.25Y-5.5
X5.25Y-5.6
X5.25Y-5.7
X5.25Y-5.8
X5.25Y-5.9
X5.25Y-6.
X5.4Y-5.975
X5.5Y-5.975
X5.6Y-5.975
X5.7Y-5.975
X5.85Y-5.875
X5.85Y-5.975
X5.95Y-5.875
X5.95Y-5.975
X6.05Y-5.875
X6.05Y-5.975
X6.15Y-5.875
X6.15Y-5.975
X6.175Y-4.5
X6.175Y-4.6
X6.175Y-4.7
X6.175Y-4.8
X6.175Y-4.9
X6.175Y-5.
X6.175Y-5.1
X6.175Y-5.2
X6.175Y-5.3
X6.175Y-5.4
T0
M30
