G04 #@! TF.FileFunction,Copper,L2,Bot,Signal*
%FSLAX46Y46*%
G04 Gerber Fmt 4.6, Leading zero omitted, Abs format (unit mm)*
G04 Created by KiCad (PCBNEW 4.0.7) date 12/25/17 13:45:12*
%MOMM*%
%LPD*%
G01*
G04 APERTURE LIST*
%ADD10C,0.100000*%
%ADD11C,1.700000*%
%ADD12R,1.700000X1.700000*%
%ADD13O,1.700000X1.700000*%
%ADD14C,0.600000*%
%ADD15C,0.250000*%
%ADD16C,0.254000*%
G04 APERTURE END LIST*
D10*
D11*
X148590000Y-151765000D03*
D12*
X148590000Y-149225000D03*
D13*
X151130000Y-151765000D03*
D12*
X151130000Y-149225000D03*
D13*
X153670000Y-151765000D03*
D12*
X153670000Y-149225000D03*
D13*
X156210000Y-151765000D03*
D12*
X156210000Y-149225000D03*
D11*
X156845000Y-114300000D03*
D13*
X156845000Y-116840000D03*
X156845000Y-119380000D03*
X156845000Y-121920000D03*
X156845000Y-124460000D03*
X156845000Y-127000000D03*
X156845000Y-129540000D03*
X156845000Y-132080000D03*
X156845000Y-134620000D03*
X156845000Y-137160000D03*
X118110000Y-152400000D03*
D12*
X118110000Y-149860000D03*
D13*
X118110000Y-147320000D03*
X118110000Y-144780000D03*
X118110000Y-142240000D03*
X118110000Y-139700000D03*
X118110000Y-137160000D03*
X118110000Y-134620000D03*
X118110000Y-132080000D03*
X118110000Y-129540000D03*
X118110000Y-127000000D03*
X118110000Y-124460000D03*
X118110000Y-121920000D03*
X118110000Y-119380000D03*
X118110000Y-116840000D03*
X118110000Y-114300000D03*
X118110000Y-111760000D03*
X118110000Y-109220000D03*
X118110000Y-106680000D03*
D11*
X118110000Y-104140000D03*
D12*
X133350000Y-104140000D03*
X133350000Y-106680000D03*
D13*
X133350000Y-109220000D03*
X133350000Y-111760000D03*
X133350000Y-114300000D03*
X133350000Y-116840000D03*
X133350000Y-119380000D03*
X133350000Y-121920000D03*
X133350000Y-124460000D03*
X133350000Y-127000000D03*
X133350000Y-129540000D03*
X133350000Y-132080000D03*
X133350000Y-134620000D03*
X133350000Y-137160000D03*
X133350000Y-139700000D03*
X133350000Y-142240000D03*
X133350000Y-144780000D03*
X133350000Y-147320000D03*
X133350000Y-149860000D03*
X133350000Y-152400000D03*
D11*
X113665000Y-121793000D03*
D13*
X113665000Y-119253000D03*
X113665000Y-116713000D03*
X113665000Y-114173000D03*
X113665000Y-111633000D03*
D12*
X113665000Y-109093000D03*
D13*
X113665000Y-106553000D03*
D12*
X113665000Y-139319000D03*
X113665000Y-136779000D03*
D11*
X113665000Y-149860000D03*
D13*
X113665000Y-147320000D03*
D11*
X144780000Y-151765000D03*
D13*
X142240000Y-151765000D03*
X139700000Y-151765000D03*
X137160000Y-151765000D03*
D14*
X145415000Y-111760000D03*
X145415000Y-115570000D03*
X145415000Y-119380000D03*
X145415000Y-123190000D03*
X145415000Y-127000000D03*
X145415000Y-130810000D03*
X145415000Y-134620000D03*
X145415000Y-138430000D03*
X145415000Y-142240000D03*
X145415000Y-146050000D03*
D15*
X116586000Y-130810000D02*
X116586000Y-128397000D01*
X116459000Y-133985000D02*
X117094000Y-133350000D01*
X117094000Y-133350000D02*
X135128000Y-133350000D01*
X135128000Y-133350000D02*
X135001000Y-133223000D01*
X135001000Y-133223000D02*
X135001000Y-130810000D01*
X135001000Y-130810000D02*
X116586000Y-130810000D01*
X116459000Y-136017000D02*
X116459000Y-133985000D01*
X116713000Y-128270000D02*
X135001000Y-128270000D01*
X116586000Y-128397000D02*
X116713000Y-128270000D01*
X113665000Y-136779000D02*
X115697000Y-136779000D01*
X145288000Y-135890000D02*
X145415000Y-135763000D01*
X116586000Y-135890000D02*
X145288000Y-135890000D01*
X115697000Y-136779000D02*
X116459000Y-136017000D01*
X116459000Y-136017000D02*
X116586000Y-135890000D01*
X133350000Y-104140000D02*
X129667000Y-104140000D01*
X115570000Y-109093000D02*
X113665000Y-109093000D01*
X116713000Y-107950000D02*
X115570000Y-109093000D01*
X125857000Y-107950000D02*
X116713000Y-107950000D01*
X129667000Y-104140000D02*
X125857000Y-107950000D01*
X115951000Y-141478000D02*
X115951000Y-147447000D01*
X113665000Y-139192000D02*
X115951000Y-141478000D01*
X117983000Y-149860000D02*
X115951000Y-147828000D01*
X115951000Y-147447000D02*
X115951000Y-147701000D01*
X115951000Y-147828000D02*
X115951000Y-147447000D01*
X118110000Y-149860000D02*
X117983000Y-149860000D01*
X113665000Y-136652000D02*
X113665000Y-139192000D01*
X133350000Y-106680000D02*
X133350000Y-105410000D01*
X133350000Y-105410000D02*
X133350000Y-104140000D01*
X145415000Y-111760000D02*
X145415000Y-111125000D01*
X140970000Y-106680000D02*
X133350000Y-106680000D01*
X145415000Y-111125000D02*
X140970000Y-106680000D01*
X145415000Y-115570000D02*
X145415000Y-111760000D01*
X145415000Y-119380000D02*
X145415000Y-115570000D01*
X145415000Y-123190000D02*
X145415000Y-119380000D01*
X145415000Y-127000000D02*
X145415000Y-123190000D01*
X145415000Y-130810000D02*
X145415000Y-127000000D01*
X145415000Y-134620000D02*
X145415000Y-130810000D01*
X145415000Y-138430000D02*
X145415000Y-135763000D01*
X145415000Y-135763000D02*
X145415000Y-134620000D01*
X145415000Y-142240000D02*
X145415000Y-138430000D01*
X145415000Y-146050000D02*
X145415000Y-142240000D01*
X156210000Y-151765000D02*
X153670000Y-151765000D01*
X153670000Y-151765000D02*
X148590000Y-151765000D01*
X113665000Y-106680000D02*
X114808000Y-106680000D01*
X137160000Y-151765000D02*
X137160000Y-151257000D01*
X137160000Y-151257000D02*
X134493000Y-148590000D01*
X134493000Y-148590000D02*
X121920000Y-148590000D01*
X121920000Y-148590000D02*
X118110000Y-144780000D01*
X139700000Y-151765000D02*
X139700000Y-151638000D01*
X139700000Y-151638000D02*
X134112000Y-146050000D01*
X121920000Y-146050000D02*
X118110000Y-142240000D01*
X134112000Y-146050000D02*
X121920000Y-146050000D01*
X139700000Y-151765000D02*
X139319000Y-151765000D01*
X142240000Y-151765000D02*
X142240000Y-151638000D01*
X142240000Y-151638000D02*
X134112000Y-143510000D01*
X134112000Y-143510000D02*
X121920000Y-143510000D01*
X121920000Y-143510000D02*
X118110000Y-139700000D01*
X144780000Y-151765000D02*
X144780000Y-151384000D01*
X144780000Y-151384000D02*
X134366000Y-140970000D01*
X134366000Y-140970000D02*
X121920000Y-140970000D01*
X121920000Y-140970000D02*
X118110000Y-137160000D01*
D16*
G36*
X116851812Y-103297717D02*
X116625258Y-103843319D01*
X116624743Y-104434089D01*
X116850344Y-104980086D01*
X117267717Y-105398188D01*
X117335550Y-105426355D01*
X117030853Y-105629946D01*
X116708946Y-106111715D01*
X116595907Y-106680000D01*
X116708946Y-107248285D01*
X117030853Y-107730054D01*
X117360026Y-107950000D01*
X117030853Y-108169946D01*
X116708946Y-108651715D01*
X116595907Y-109220000D01*
X116708946Y-109788285D01*
X117030853Y-110270054D01*
X117360026Y-110490000D01*
X117030853Y-110709946D01*
X116708946Y-111191715D01*
X116595907Y-111760000D01*
X116708946Y-112328285D01*
X117030853Y-112810054D01*
X117360026Y-113030000D01*
X117030853Y-113249946D01*
X116708946Y-113731715D01*
X116595907Y-114300000D01*
X116708946Y-114868285D01*
X117030853Y-115350054D01*
X117360026Y-115570000D01*
X117030853Y-115789946D01*
X116708946Y-116271715D01*
X116595907Y-116840000D01*
X116708946Y-117408285D01*
X117030853Y-117890054D01*
X117360026Y-118110000D01*
X117030853Y-118329946D01*
X116708946Y-118811715D01*
X116595907Y-119380000D01*
X116708946Y-119948285D01*
X117030853Y-120430054D01*
X117360026Y-120650000D01*
X117030853Y-120869946D01*
X116708946Y-121351715D01*
X116595907Y-121920000D01*
X116708946Y-122488285D01*
X117030853Y-122970054D01*
X117360026Y-123190000D01*
X117030853Y-123409946D01*
X116708946Y-123891715D01*
X116595907Y-124460000D01*
X116708946Y-125028285D01*
X117030853Y-125510054D01*
X117360026Y-125730000D01*
X117030853Y-125949946D01*
X116708946Y-126431715D01*
X116595907Y-127000000D01*
X116708946Y-127568285D01*
X117030853Y-128050054D01*
X117360026Y-128270000D01*
X117030853Y-128489946D01*
X116708946Y-128971715D01*
X116595907Y-129540000D01*
X116708946Y-130108285D01*
X117030853Y-130590054D01*
X117360026Y-130810000D01*
X117030853Y-131029946D01*
X116708946Y-131511715D01*
X116595907Y-132080000D01*
X116708946Y-132648285D01*
X117030853Y-133130054D01*
X117360026Y-133350000D01*
X117030853Y-133569946D01*
X116708946Y-134051715D01*
X116595907Y-134620000D01*
X116708946Y-135188285D01*
X117030853Y-135670054D01*
X117360026Y-135890000D01*
X117030853Y-136109946D01*
X116708946Y-136591715D01*
X116595907Y-137160000D01*
X116708946Y-137728285D01*
X117030853Y-138210054D01*
X117360026Y-138430000D01*
X117030853Y-138649946D01*
X116708946Y-139131715D01*
X116595907Y-139700000D01*
X116708946Y-140268285D01*
X117030853Y-140750054D01*
X117360026Y-140970000D01*
X117030853Y-141189946D01*
X116708946Y-141671715D01*
X116595907Y-142240000D01*
X116708946Y-142808285D01*
X117030853Y-143290054D01*
X117360026Y-143510000D01*
X117030853Y-143729946D01*
X116708946Y-144211715D01*
X116595907Y-144780000D01*
X116708946Y-145348285D01*
X117030853Y-145830054D01*
X117360026Y-146050000D01*
X117030853Y-146269946D01*
X116708946Y-146751715D01*
X116595907Y-147320000D01*
X116708946Y-147888285D01*
X117030853Y-148370054D01*
X117074777Y-148399403D01*
X116900302Y-148471673D01*
X116721673Y-148650301D01*
X116625000Y-148883690D01*
X116625000Y-149574250D01*
X116783750Y-149733000D01*
X117983000Y-149733000D01*
X117983000Y-149713000D01*
X118237000Y-149713000D01*
X118237000Y-149733000D01*
X119436250Y-149733000D01*
X119595000Y-149574250D01*
X119595000Y-148883690D01*
X119498327Y-148650301D01*
X119319698Y-148471673D01*
X119145223Y-148399403D01*
X119189147Y-148370054D01*
X119511054Y-147888285D01*
X119615981Y-147360783D01*
X121382599Y-149127401D01*
X121629161Y-149292148D01*
X121920000Y-149350000D01*
X131937352Y-149350000D01*
X131835907Y-149860000D01*
X131948946Y-150428285D01*
X132270853Y-150910054D01*
X132600026Y-151130000D01*
X132270853Y-151349946D01*
X131948946Y-151831715D01*
X131835907Y-152400000D01*
X131948946Y-152968285D01*
X132197986Y-153341000D01*
X119262014Y-153341000D01*
X119511054Y-152968285D01*
X119624093Y-152400000D01*
X119511054Y-151831715D01*
X119189147Y-151349946D01*
X119145223Y-151320597D01*
X119319698Y-151248327D01*
X119498327Y-151069699D01*
X119595000Y-150836310D01*
X119595000Y-150145750D01*
X119436250Y-149987000D01*
X118237000Y-149987000D01*
X118237000Y-150007000D01*
X117983000Y-150007000D01*
X117983000Y-149987000D01*
X116783750Y-149987000D01*
X116625000Y-150145750D01*
X116625000Y-150836310D01*
X116721673Y-151069699D01*
X116900302Y-151248327D01*
X117074777Y-151320597D01*
X117030853Y-151349946D01*
X116708946Y-151831715D01*
X116595907Y-152400000D01*
X116708946Y-152968285D01*
X116957986Y-153341000D01*
X112343000Y-153341000D01*
X112343000Y-150549202D01*
X112405344Y-150700086D01*
X112822717Y-151118188D01*
X113368319Y-151344742D01*
X113959089Y-151345257D01*
X114505086Y-151119656D01*
X114923188Y-150702283D01*
X115149742Y-150156681D01*
X115150257Y-149565911D01*
X114924656Y-149019914D01*
X114507283Y-148601812D01*
X114439450Y-148573645D01*
X114744147Y-148370054D01*
X115066054Y-147888285D01*
X115179093Y-147320000D01*
X115066054Y-146751715D01*
X114744147Y-146269946D01*
X114262378Y-145948039D01*
X113694093Y-145835000D01*
X113635907Y-145835000D01*
X113067622Y-145948039D01*
X112585853Y-146269946D01*
X112343000Y-146633402D01*
X112343000Y-140595026D01*
X112455302Y-140707327D01*
X112688691Y-140804000D01*
X113379250Y-140804000D01*
X113538000Y-140645250D01*
X113538000Y-139446000D01*
X113792000Y-139446000D01*
X113792000Y-140645250D01*
X113950750Y-140804000D01*
X114641309Y-140804000D01*
X114874698Y-140707327D01*
X115053327Y-140528699D01*
X115150000Y-140295310D01*
X115150000Y-139604750D01*
X114991250Y-139446000D01*
X113792000Y-139446000D01*
X113538000Y-139446000D01*
X113518000Y-139446000D01*
X113518000Y-139192000D01*
X113538000Y-139192000D01*
X113538000Y-136906000D01*
X113792000Y-136906000D01*
X113792000Y-139192000D01*
X114991250Y-139192000D01*
X115150000Y-139033250D01*
X115150000Y-138342690D01*
X115053327Y-138109301D01*
X114993026Y-138049000D01*
X115053327Y-137988699D01*
X115150000Y-137755310D01*
X115150000Y-137064750D01*
X114991250Y-136906000D01*
X113792000Y-136906000D01*
X113538000Y-136906000D01*
X113518000Y-136906000D01*
X113518000Y-136652000D01*
X113538000Y-136652000D01*
X113538000Y-135452750D01*
X113792000Y-135452750D01*
X113792000Y-136652000D01*
X114991250Y-136652000D01*
X115150000Y-136493250D01*
X115150000Y-135802690D01*
X115053327Y-135569301D01*
X114874698Y-135390673D01*
X114641309Y-135294000D01*
X113950750Y-135294000D01*
X113792000Y-135452750D01*
X113538000Y-135452750D01*
X113379250Y-135294000D01*
X112688691Y-135294000D01*
X112455302Y-135390673D01*
X112343000Y-135502974D01*
X112343000Y-122482202D01*
X112405344Y-122633086D01*
X112822717Y-123051188D01*
X113368319Y-123277742D01*
X113959089Y-123278257D01*
X114505086Y-123052656D01*
X114923188Y-122635283D01*
X115149742Y-122089681D01*
X115150257Y-121498911D01*
X114924656Y-120952914D01*
X114507283Y-120534812D01*
X114439450Y-120506645D01*
X114744147Y-120303054D01*
X115066054Y-119821285D01*
X115179093Y-119253000D01*
X115066054Y-118684715D01*
X114744147Y-118202946D01*
X114414974Y-117983000D01*
X114744147Y-117763054D01*
X115066054Y-117281285D01*
X115179093Y-116713000D01*
X115066054Y-116144715D01*
X114744147Y-115662946D01*
X114414974Y-115443000D01*
X114744147Y-115223054D01*
X115066054Y-114741285D01*
X115179093Y-114173000D01*
X115066054Y-113604715D01*
X114744147Y-113122946D01*
X114414974Y-112903000D01*
X114744147Y-112683054D01*
X115066054Y-112201285D01*
X115179093Y-111633000D01*
X115066054Y-111064715D01*
X114744147Y-110582946D01*
X114700223Y-110553597D01*
X114874698Y-110481327D01*
X115053327Y-110302699D01*
X115150000Y-110069310D01*
X115150000Y-109378750D01*
X114991250Y-109220000D01*
X113792000Y-109220000D01*
X113792000Y-109240000D01*
X113538000Y-109240000D01*
X113538000Y-109220000D01*
X113518000Y-109220000D01*
X113518000Y-108966000D01*
X113538000Y-108966000D01*
X113538000Y-108946000D01*
X113792000Y-108946000D01*
X113792000Y-108966000D01*
X114991250Y-108966000D01*
X115150000Y-108807250D01*
X115150000Y-108116690D01*
X115053327Y-107883301D01*
X114874698Y-107704673D01*
X114700223Y-107632403D01*
X114744147Y-107603054D01*
X114860008Y-107429655D01*
X115098839Y-107382148D01*
X115345401Y-107217401D01*
X115510148Y-106970839D01*
X115568000Y-106680000D01*
X115510148Y-106389161D01*
X115345401Y-106142599D01*
X115098839Y-105977852D01*
X115055740Y-105969279D01*
X114744147Y-105502946D01*
X114262378Y-105181039D01*
X113694093Y-105068000D01*
X113635907Y-105068000D01*
X113067622Y-105181039D01*
X112585853Y-105502946D01*
X112343000Y-105866402D01*
X112343000Y-102945000D01*
X117205145Y-102945000D01*
X116851812Y-103297717D01*
X116851812Y-103297717D01*
G37*
X116851812Y-103297717D02*
X116625258Y-103843319D01*
X116624743Y-104434089D01*
X116850344Y-104980086D01*
X117267717Y-105398188D01*
X117335550Y-105426355D01*
X117030853Y-105629946D01*
X116708946Y-106111715D01*
X116595907Y-106680000D01*
X116708946Y-107248285D01*
X117030853Y-107730054D01*
X117360026Y-107950000D01*
X117030853Y-108169946D01*
X116708946Y-108651715D01*
X116595907Y-109220000D01*
X116708946Y-109788285D01*
X117030853Y-110270054D01*
X117360026Y-110490000D01*
X117030853Y-110709946D01*
X116708946Y-111191715D01*
X116595907Y-111760000D01*
X116708946Y-112328285D01*
X117030853Y-112810054D01*
X117360026Y-113030000D01*
X117030853Y-113249946D01*
X116708946Y-113731715D01*
X116595907Y-114300000D01*
X116708946Y-114868285D01*
X117030853Y-115350054D01*
X117360026Y-115570000D01*
X117030853Y-115789946D01*
X116708946Y-116271715D01*
X116595907Y-116840000D01*
X116708946Y-117408285D01*
X117030853Y-117890054D01*
X117360026Y-118110000D01*
X117030853Y-118329946D01*
X116708946Y-118811715D01*
X116595907Y-119380000D01*
X116708946Y-119948285D01*
X117030853Y-120430054D01*
X117360026Y-120650000D01*
X117030853Y-120869946D01*
X116708946Y-121351715D01*
X116595907Y-121920000D01*
X116708946Y-122488285D01*
X117030853Y-122970054D01*
X117360026Y-123190000D01*
X117030853Y-123409946D01*
X116708946Y-123891715D01*
X116595907Y-124460000D01*
X116708946Y-125028285D01*
X117030853Y-125510054D01*
X117360026Y-125730000D01*
X117030853Y-125949946D01*
X116708946Y-126431715D01*
X116595907Y-127000000D01*
X116708946Y-127568285D01*
X117030853Y-128050054D01*
X117360026Y-128270000D01*
X117030853Y-128489946D01*
X116708946Y-128971715D01*
X116595907Y-129540000D01*
X116708946Y-130108285D01*
X117030853Y-130590054D01*
X117360026Y-130810000D01*
X117030853Y-131029946D01*
X116708946Y-131511715D01*
X116595907Y-132080000D01*
X116708946Y-132648285D01*
X117030853Y-133130054D01*
X117360026Y-133350000D01*
X117030853Y-133569946D01*
X116708946Y-134051715D01*
X116595907Y-134620000D01*
X116708946Y-135188285D01*
X117030853Y-135670054D01*
X117360026Y-135890000D01*
X117030853Y-136109946D01*
X116708946Y-136591715D01*
X116595907Y-137160000D01*
X116708946Y-137728285D01*
X117030853Y-138210054D01*
X117360026Y-138430000D01*
X117030853Y-138649946D01*
X116708946Y-139131715D01*
X116595907Y-139700000D01*
X116708946Y-140268285D01*
X117030853Y-140750054D01*
X117360026Y-140970000D01*
X117030853Y-141189946D01*
X116708946Y-141671715D01*
X116595907Y-142240000D01*
X116708946Y-142808285D01*
X117030853Y-143290054D01*
X117360026Y-143510000D01*
X117030853Y-143729946D01*
X116708946Y-144211715D01*
X116595907Y-144780000D01*
X116708946Y-145348285D01*
X117030853Y-145830054D01*
X117360026Y-146050000D01*
X117030853Y-146269946D01*
X116708946Y-146751715D01*
X116595907Y-147320000D01*
X116708946Y-147888285D01*
X117030853Y-148370054D01*
X117074777Y-148399403D01*
X116900302Y-148471673D01*
X116721673Y-148650301D01*
X116625000Y-148883690D01*
X116625000Y-149574250D01*
X116783750Y-149733000D01*
X117983000Y-149733000D01*
X117983000Y-149713000D01*
X118237000Y-149713000D01*
X118237000Y-149733000D01*
X119436250Y-149733000D01*
X119595000Y-149574250D01*
X119595000Y-148883690D01*
X119498327Y-148650301D01*
X119319698Y-148471673D01*
X119145223Y-148399403D01*
X119189147Y-148370054D01*
X119511054Y-147888285D01*
X119615981Y-147360783D01*
X121382599Y-149127401D01*
X121629161Y-149292148D01*
X121920000Y-149350000D01*
X131937352Y-149350000D01*
X131835907Y-149860000D01*
X131948946Y-150428285D01*
X132270853Y-150910054D01*
X132600026Y-151130000D01*
X132270853Y-151349946D01*
X131948946Y-151831715D01*
X131835907Y-152400000D01*
X131948946Y-152968285D01*
X132197986Y-153341000D01*
X119262014Y-153341000D01*
X119511054Y-152968285D01*
X119624093Y-152400000D01*
X119511054Y-151831715D01*
X119189147Y-151349946D01*
X119145223Y-151320597D01*
X119319698Y-151248327D01*
X119498327Y-151069699D01*
X119595000Y-150836310D01*
X119595000Y-150145750D01*
X119436250Y-149987000D01*
X118237000Y-149987000D01*
X118237000Y-150007000D01*
X117983000Y-150007000D01*
X117983000Y-149987000D01*
X116783750Y-149987000D01*
X116625000Y-150145750D01*
X116625000Y-150836310D01*
X116721673Y-151069699D01*
X116900302Y-151248327D01*
X117074777Y-151320597D01*
X117030853Y-151349946D01*
X116708946Y-151831715D01*
X116595907Y-152400000D01*
X116708946Y-152968285D01*
X116957986Y-153341000D01*
X112343000Y-153341000D01*
X112343000Y-150549202D01*
X112405344Y-150700086D01*
X112822717Y-151118188D01*
X113368319Y-151344742D01*
X113959089Y-151345257D01*
X114505086Y-151119656D01*
X114923188Y-150702283D01*
X115149742Y-150156681D01*
X115150257Y-149565911D01*
X114924656Y-149019914D01*
X114507283Y-148601812D01*
X114439450Y-148573645D01*
X114744147Y-148370054D01*
X115066054Y-147888285D01*
X115179093Y-147320000D01*
X115066054Y-146751715D01*
X114744147Y-146269946D01*
X114262378Y-145948039D01*
X113694093Y-145835000D01*
X113635907Y-145835000D01*
X113067622Y-145948039D01*
X112585853Y-146269946D01*
X112343000Y-146633402D01*
X112343000Y-140595026D01*
X112455302Y-140707327D01*
X112688691Y-140804000D01*
X113379250Y-140804000D01*
X113538000Y-140645250D01*
X113538000Y-139446000D01*
X113792000Y-139446000D01*
X113792000Y-140645250D01*
X113950750Y-140804000D01*
X114641309Y-140804000D01*
X114874698Y-140707327D01*
X115053327Y-140528699D01*
X115150000Y-140295310D01*
X115150000Y-139604750D01*
X114991250Y-139446000D01*
X113792000Y-139446000D01*
X113538000Y-139446000D01*
X113518000Y-139446000D01*
X113518000Y-139192000D01*
X113538000Y-139192000D01*
X113538000Y-136906000D01*
X113792000Y-136906000D01*
X113792000Y-139192000D01*
X114991250Y-139192000D01*
X115150000Y-139033250D01*
X115150000Y-138342690D01*
X115053327Y-138109301D01*
X114993026Y-138049000D01*
X115053327Y-137988699D01*
X115150000Y-137755310D01*
X115150000Y-137064750D01*
X114991250Y-136906000D01*
X113792000Y-136906000D01*
X113538000Y-136906000D01*
X113518000Y-136906000D01*
X113518000Y-136652000D01*
X113538000Y-136652000D01*
X113538000Y-135452750D01*
X113792000Y-135452750D01*
X113792000Y-136652000D01*
X114991250Y-136652000D01*
X115150000Y-136493250D01*
X115150000Y-135802690D01*
X115053327Y-135569301D01*
X114874698Y-135390673D01*
X114641309Y-135294000D01*
X113950750Y-135294000D01*
X113792000Y-135452750D01*
X113538000Y-135452750D01*
X113379250Y-135294000D01*
X112688691Y-135294000D01*
X112455302Y-135390673D01*
X112343000Y-135502974D01*
X112343000Y-122482202D01*
X112405344Y-122633086D01*
X112822717Y-123051188D01*
X113368319Y-123277742D01*
X113959089Y-123278257D01*
X114505086Y-123052656D01*
X114923188Y-122635283D01*
X115149742Y-122089681D01*
X115150257Y-121498911D01*
X114924656Y-120952914D01*
X114507283Y-120534812D01*
X114439450Y-120506645D01*
X114744147Y-120303054D01*
X115066054Y-119821285D01*
X115179093Y-119253000D01*
X115066054Y-118684715D01*
X114744147Y-118202946D01*
X114414974Y-117983000D01*
X114744147Y-117763054D01*
X115066054Y-117281285D01*
X115179093Y-116713000D01*
X115066054Y-116144715D01*
X114744147Y-115662946D01*
X114414974Y-115443000D01*
X114744147Y-115223054D01*
X115066054Y-114741285D01*
X115179093Y-114173000D01*
X115066054Y-113604715D01*
X114744147Y-113122946D01*
X114414974Y-112903000D01*
X114744147Y-112683054D01*
X115066054Y-112201285D01*
X115179093Y-111633000D01*
X115066054Y-111064715D01*
X114744147Y-110582946D01*
X114700223Y-110553597D01*
X114874698Y-110481327D01*
X115053327Y-110302699D01*
X115150000Y-110069310D01*
X115150000Y-109378750D01*
X114991250Y-109220000D01*
X113792000Y-109220000D01*
X113792000Y-109240000D01*
X113538000Y-109240000D01*
X113538000Y-109220000D01*
X113518000Y-109220000D01*
X113518000Y-108966000D01*
X113538000Y-108966000D01*
X113538000Y-108946000D01*
X113792000Y-108946000D01*
X113792000Y-108966000D01*
X114991250Y-108966000D01*
X115150000Y-108807250D01*
X115150000Y-108116690D01*
X115053327Y-107883301D01*
X114874698Y-107704673D01*
X114700223Y-107632403D01*
X114744147Y-107603054D01*
X114860008Y-107429655D01*
X115098839Y-107382148D01*
X115345401Y-107217401D01*
X115510148Y-106970839D01*
X115568000Y-106680000D01*
X115510148Y-106389161D01*
X115345401Y-106142599D01*
X115098839Y-105977852D01*
X115055740Y-105969279D01*
X114744147Y-105502946D01*
X114262378Y-105181039D01*
X113694093Y-105068000D01*
X113635907Y-105068000D01*
X113067622Y-105181039D01*
X112585853Y-105502946D01*
X112343000Y-105866402D01*
X112343000Y-102945000D01*
X117205145Y-102945000D01*
X116851812Y-103297717D01*
G36*
X131865000Y-103163690D02*
X131865000Y-103854250D01*
X132023750Y-104013000D01*
X133223000Y-104013000D01*
X133223000Y-103993000D01*
X133477000Y-103993000D01*
X133477000Y-104013000D01*
X134676250Y-104013000D01*
X134835000Y-103854250D01*
X134835000Y-103163690D01*
X134744416Y-102945000D01*
X158929000Y-102945000D01*
X158929000Y-153341000D01*
X134502014Y-153341000D01*
X134751054Y-152968285D01*
X134864093Y-152400000D01*
X134751054Y-151831715D01*
X134429147Y-151349946D01*
X134099974Y-151130000D01*
X134429147Y-150910054D01*
X134751054Y-150428285D01*
X134834910Y-150006712D01*
X135871264Y-151043066D01*
X135788039Y-151167622D01*
X135675000Y-151735907D01*
X135675000Y-151794093D01*
X135788039Y-152362378D01*
X136109946Y-152844147D01*
X136591715Y-153166054D01*
X137160000Y-153279093D01*
X137728285Y-153166054D01*
X138210054Y-152844147D01*
X138430000Y-152514974D01*
X138649946Y-152844147D01*
X139131715Y-153166054D01*
X139700000Y-153279093D01*
X140268285Y-153166054D01*
X140750054Y-152844147D01*
X140970000Y-152514974D01*
X141189946Y-152844147D01*
X141671715Y-153166054D01*
X142240000Y-153279093D01*
X142808285Y-153166054D01*
X143290054Y-152844147D01*
X143493385Y-152539840D01*
X143520344Y-152605086D01*
X143937717Y-153023188D01*
X144483319Y-153249742D01*
X145074089Y-153250257D01*
X145620086Y-153024656D01*
X146038188Y-152607283D01*
X146264742Y-152061681D01*
X146264744Y-152059089D01*
X147104743Y-152059089D01*
X147330344Y-152605086D01*
X147747717Y-153023188D01*
X148293319Y-153249742D01*
X148884089Y-153250257D01*
X149430086Y-153024656D01*
X149848188Y-152607283D01*
X149876355Y-152539450D01*
X150079946Y-152844147D01*
X150561715Y-153166054D01*
X151130000Y-153279093D01*
X151698285Y-153166054D01*
X152180054Y-152844147D01*
X152393301Y-152525000D01*
X152406699Y-152525000D01*
X152619946Y-152844147D01*
X153101715Y-153166054D01*
X153670000Y-153279093D01*
X154238285Y-153166054D01*
X154720054Y-152844147D01*
X154933301Y-152525000D01*
X154946699Y-152525000D01*
X155159946Y-152844147D01*
X155641715Y-153166054D01*
X156210000Y-153279093D01*
X156778285Y-153166054D01*
X157260054Y-152844147D01*
X157581961Y-152362378D01*
X157695000Y-151794093D01*
X157695000Y-151735907D01*
X157581961Y-151167622D01*
X157260054Y-150685853D01*
X157254142Y-150681903D01*
X157419699Y-150613327D01*
X157598327Y-150434698D01*
X157695000Y-150201309D01*
X157695000Y-149510750D01*
X157536250Y-149352000D01*
X156337000Y-149352000D01*
X156337000Y-149372000D01*
X156083000Y-149372000D01*
X156083000Y-149352000D01*
X153797000Y-149352000D01*
X153797000Y-149372000D01*
X153543000Y-149372000D01*
X153543000Y-149352000D01*
X151257000Y-149352000D01*
X151257000Y-149372000D01*
X151003000Y-149372000D01*
X151003000Y-149352000D01*
X148717000Y-149352000D01*
X148717000Y-149372000D01*
X148463000Y-149372000D01*
X148463000Y-149352000D01*
X147263750Y-149352000D01*
X147105000Y-149510750D01*
X147105000Y-150201309D01*
X147201673Y-150434698D01*
X147380301Y-150613327D01*
X147565073Y-150689862D01*
X147331812Y-150922717D01*
X147105258Y-151468319D01*
X147104743Y-152059089D01*
X146264744Y-152059089D01*
X146265257Y-151470911D01*
X146039656Y-150924914D01*
X145622283Y-150506812D01*
X145076681Y-150280258D01*
X144750776Y-150279974D01*
X142719493Y-148248691D01*
X147105000Y-148248691D01*
X147105000Y-148939250D01*
X147263750Y-149098000D01*
X148463000Y-149098000D01*
X148463000Y-147898750D01*
X148717000Y-147898750D01*
X148717000Y-149098000D01*
X151003000Y-149098000D01*
X151003000Y-147898750D01*
X151257000Y-147898750D01*
X151257000Y-149098000D01*
X153543000Y-149098000D01*
X153543000Y-147898750D01*
X153797000Y-147898750D01*
X153797000Y-149098000D01*
X156083000Y-149098000D01*
X156083000Y-147898750D01*
X156337000Y-147898750D01*
X156337000Y-149098000D01*
X157536250Y-149098000D01*
X157695000Y-148939250D01*
X157695000Y-148248691D01*
X157598327Y-148015302D01*
X157419699Y-147836673D01*
X157186310Y-147740000D01*
X156495750Y-147740000D01*
X156337000Y-147898750D01*
X156083000Y-147898750D01*
X155924250Y-147740000D01*
X155233690Y-147740000D01*
X155000301Y-147836673D01*
X154940000Y-147896974D01*
X154879699Y-147836673D01*
X154646310Y-147740000D01*
X153955750Y-147740000D01*
X153797000Y-147898750D01*
X153543000Y-147898750D01*
X153384250Y-147740000D01*
X152693690Y-147740000D01*
X152460301Y-147836673D01*
X152400000Y-147896974D01*
X152339699Y-147836673D01*
X152106310Y-147740000D01*
X151415750Y-147740000D01*
X151257000Y-147898750D01*
X151003000Y-147898750D01*
X150844250Y-147740000D01*
X150153690Y-147740000D01*
X149920301Y-147836673D01*
X149860000Y-147896974D01*
X149799699Y-147836673D01*
X149566310Y-147740000D01*
X148875750Y-147740000D01*
X148717000Y-147898750D01*
X148463000Y-147898750D01*
X148304250Y-147740000D01*
X147613690Y-147740000D01*
X147380301Y-147836673D01*
X147201673Y-148015302D01*
X147105000Y-148248691D01*
X142719493Y-148248691D01*
X134903401Y-140432599D01*
X134722174Y-140311507D01*
X134751054Y-140268285D01*
X134864093Y-139700000D01*
X134751054Y-139131715D01*
X134429147Y-138649946D01*
X134099974Y-138430000D01*
X134429147Y-138210054D01*
X134751054Y-137728285D01*
X134864093Y-137160000D01*
X134751054Y-136591715D01*
X134429147Y-136109946D01*
X134099974Y-135890000D01*
X134429147Y-135670054D01*
X134751054Y-135188285D01*
X134864093Y-134620000D01*
X134751054Y-134051715D01*
X134429147Y-133569946D01*
X134099974Y-133350000D01*
X134429147Y-133130054D01*
X134751054Y-132648285D01*
X134864093Y-132080000D01*
X134751054Y-131511715D01*
X134429147Y-131029946D01*
X134099974Y-130810000D01*
X134429147Y-130590054D01*
X134751054Y-130108285D01*
X134864093Y-129540000D01*
X134751054Y-128971715D01*
X134429147Y-128489946D01*
X134099974Y-128270000D01*
X134429147Y-128050054D01*
X134751054Y-127568285D01*
X134864093Y-127000000D01*
X134751054Y-126431715D01*
X134429147Y-125949946D01*
X134099974Y-125730000D01*
X134429147Y-125510054D01*
X134751054Y-125028285D01*
X134864093Y-124460000D01*
X134751054Y-123891715D01*
X134429147Y-123409946D01*
X134099974Y-123190000D01*
X134429147Y-122970054D01*
X134751054Y-122488285D01*
X134864093Y-121920000D01*
X134751054Y-121351715D01*
X134429147Y-120869946D01*
X134099974Y-120650000D01*
X134429147Y-120430054D01*
X134751054Y-119948285D01*
X134864093Y-119380000D01*
X134751054Y-118811715D01*
X134429147Y-118329946D01*
X134099974Y-118110000D01*
X134429147Y-117890054D01*
X134751054Y-117408285D01*
X134864093Y-116840000D01*
X155330907Y-116840000D01*
X155443946Y-117408285D01*
X155765853Y-117890054D01*
X156095026Y-118110000D01*
X155765853Y-118329946D01*
X155443946Y-118811715D01*
X155330907Y-119380000D01*
X155443946Y-119948285D01*
X155765853Y-120430054D01*
X156095026Y-120650000D01*
X155765853Y-120869946D01*
X155443946Y-121351715D01*
X155330907Y-121920000D01*
X155443946Y-122488285D01*
X155765853Y-122970054D01*
X156095026Y-123190000D01*
X155765853Y-123409946D01*
X155443946Y-123891715D01*
X155330907Y-124460000D01*
X155443946Y-125028285D01*
X155765853Y-125510054D01*
X156095026Y-125730000D01*
X155765853Y-125949946D01*
X155443946Y-126431715D01*
X155330907Y-127000000D01*
X155443946Y-127568285D01*
X155765853Y-128050054D01*
X156095026Y-128270000D01*
X155765853Y-128489946D01*
X155443946Y-128971715D01*
X155330907Y-129540000D01*
X155443946Y-130108285D01*
X155765853Y-130590054D01*
X156095026Y-130810000D01*
X155765853Y-131029946D01*
X155443946Y-131511715D01*
X155330907Y-132080000D01*
X155443946Y-132648285D01*
X155765853Y-133130054D01*
X156095026Y-133350000D01*
X155765853Y-133569946D01*
X155443946Y-134051715D01*
X155330907Y-134620000D01*
X155443946Y-135188285D01*
X155765853Y-135670054D01*
X156095026Y-135890000D01*
X155765853Y-136109946D01*
X155443946Y-136591715D01*
X155330907Y-137160000D01*
X155443946Y-137728285D01*
X155765853Y-138210054D01*
X156247622Y-138531961D01*
X156815907Y-138645000D01*
X156874093Y-138645000D01*
X157442378Y-138531961D01*
X157924147Y-138210054D01*
X158246054Y-137728285D01*
X158359093Y-137160000D01*
X158246054Y-136591715D01*
X157924147Y-136109946D01*
X157594974Y-135890000D01*
X157924147Y-135670054D01*
X158246054Y-135188285D01*
X158359093Y-134620000D01*
X158246054Y-134051715D01*
X157924147Y-133569946D01*
X157594974Y-133350000D01*
X157924147Y-133130054D01*
X158246054Y-132648285D01*
X158359093Y-132080000D01*
X158246054Y-131511715D01*
X157924147Y-131029946D01*
X157594974Y-130810000D01*
X157924147Y-130590054D01*
X158246054Y-130108285D01*
X158359093Y-129540000D01*
X158246054Y-128971715D01*
X157924147Y-128489946D01*
X157594974Y-128270000D01*
X157924147Y-128050054D01*
X158246054Y-127568285D01*
X158359093Y-127000000D01*
X158246054Y-126431715D01*
X157924147Y-125949946D01*
X157594974Y-125730000D01*
X157924147Y-125510054D01*
X158246054Y-125028285D01*
X158359093Y-124460000D01*
X158246054Y-123891715D01*
X157924147Y-123409946D01*
X157594974Y-123190000D01*
X157924147Y-122970054D01*
X158246054Y-122488285D01*
X158359093Y-121920000D01*
X158246054Y-121351715D01*
X157924147Y-120869946D01*
X157594974Y-120650000D01*
X157924147Y-120430054D01*
X158246054Y-119948285D01*
X158359093Y-119380000D01*
X158246054Y-118811715D01*
X157924147Y-118329946D01*
X157594974Y-118110000D01*
X157924147Y-117890054D01*
X158246054Y-117408285D01*
X158359093Y-116840000D01*
X158246054Y-116271715D01*
X157924147Y-115789946D01*
X157619840Y-115586615D01*
X157685086Y-115559656D01*
X158103188Y-115142283D01*
X158329742Y-114596681D01*
X158330257Y-114005911D01*
X158104656Y-113459914D01*
X157687283Y-113041812D01*
X157141681Y-112815258D01*
X156550911Y-112814743D01*
X156004914Y-113040344D01*
X155586812Y-113457717D01*
X155360258Y-114003319D01*
X155359743Y-114594089D01*
X155585344Y-115140086D01*
X156002717Y-115558188D01*
X156070550Y-115586355D01*
X155765853Y-115789946D01*
X155443946Y-116271715D01*
X155330907Y-116840000D01*
X134864093Y-116840000D01*
X134751054Y-116271715D01*
X134429147Y-115789946D01*
X134099974Y-115570000D01*
X134429147Y-115350054D01*
X134751054Y-114868285D01*
X134864093Y-114300000D01*
X134751054Y-113731715D01*
X134429147Y-113249946D01*
X134099974Y-113030000D01*
X134429147Y-112810054D01*
X134751054Y-112328285D01*
X134864093Y-111760000D01*
X134751054Y-111191715D01*
X134429147Y-110709946D01*
X134099974Y-110490000D01*
X134429147Y-110270054D01*
X134751054Y-109788285D01*
X134864093Y-109220000D01*
X134751054Y-108651715D01*
X134429147Y-108169946D01*
X134385223Y-108140597D01*
X134559698Y-108068327D01*
X134738327Y-107889699D01*
X134835000Y-107656310D01*
X134835000Y-106965750D01*
X134676250Y-106807000D01*
X133477000Y-106807000D01*
X133477000Y-106827000D01*
X133223000Y-106827000D01*
X133223000Y-106807000D01*
X132023750Y-106807000D01*
X131865000Y-106965750D01*
X131865000Y-107656310D01*
X131961673Y-107889699D01*
X132140302Y-108068327D01*
X132314777Y-108140597D01*
X132270853Y-108169946D01*
X131948946Y-108651715D01*
X131835907Y-109220000D01*
X131948946Y-109788285D01*
X132270853Y-110270054D01*
X132600026Y-110490000D01*
X132270853Y-110709946D01*
X131948946Y-111191715D01*
X131835907Y-111760000D01*
X131948946Y-112328285D01*
X132270853Y-112810054D01*
X132600026Y-113030000D01*
X132270853Y-113249946D01*
X131948946Y-113731715D01*
X131835907Y-114300000D01*
X131948946Y-114868285D01*
X132270853Y-115350054D01*
X132600026Y-115570000D01*
X132270853Y-115789946D01*
X131948946Y-116271715D01*
X131835907Y-116840000D01*
X131948946Y-117408285D01*
X132270853Y-117890054D01*
X132600026Y-118110000D01*
X132270853Y-118329946D01*
X131948946Y-118811715D01*
X131835907Y-119380000D01*
X131948946Y-119948285D01*
X132270853Y-120430054D01*
X132600026Y-120650000D01*
X132270853Y-120869946D01*
X131948946Y-121351715D01*
X131835907Y-121920000D01*
X131948946Y-122488285D01*
X132270853Y-122970054D01*
X132600026Y-123190000D01*
X132270853Y-123409946D01*
X131948946Y-123891715D01*
X131835907Y-124460000D01*
X131948946Y-125028285D01*
X132270853Y-125510054D01*
X132600026Y-125730000D01*
X132270853Y-125949946D01*
X131948946Y-126431715D01*
X131835907Y-127000000D01*
X131948946Y-127568285D01*
X132270853Y-128050054D01*
X132600026Y-128270000D01*
X132270853Y-128489946D01*
X131948946Y-128971715D01*
X131835907Y-129540000D01*
X131948946Y-130108285D01*
X132270853Y-130590054D01*
X132600026Y-130810000D01*
X132270853Y-131029946D01*
X131948946Y-131511715D01*
X131835907Y-132080000D01*
X131948946Y-132648285D01*
X132270853Y-133130054D01*
X132600026Y-133350000D01*
X132270853Y-133569946D01*
X131948946Y-134051715D01*
X131835907Y-134620000D01*
X131948946Y-135188285D01*
X132270853Y-135670054D01*
X132600026Y-135890000D01*
X132270853Y-136109946D01*
X131948946Y-136591715D01*
X131835907Y-137160000D01*
X131948946Y-137728285D01*
X132270853Y-138210054D01*
X132600026Y-138430000D01*
X132270853Y-138649946D01*
X131948946Y-139131715D01*
X131835907Y-139700000D01*
X131937352Y-140210000D01*
X122234802Y-140210000D01*
X119551210Y-137526408D01*
X119624093Y-137160000D01*
X119511054Y-136591715D01*
X119189147Y-136109946D01*
X118859974Y-135890000D01*
X119189147Y-135670054D01*
X119511054Y-135188285D01*
X119624093Y-134620000D01*
X119511054Y-134051715D01*
X119189147Y-133569946D01*
X118859974Y-133350000D01*
X119189147Y-133130054D01*
X119511054Y-132648285D01*
X119624093Y-132080000D01*
X119511054Y-131511715D01*
X119189147Y-131029946D01*
X118859974Y-130810000D01*
X119189147Y-130590054D01*
X119511054Y-130108285D01*
X119624093Y-129540000D01*
X119511054Y-128971715D01*
X119189147Y-128489946D01*
X118859974Y-128270000D01*
X119189147Y-128050054D01*
X119511054Y-127568285D01*
X119624093Y-127000000D01*
X119511054Y-126431715D01*
X119189147Y-125949946D01*
X118859974Y-125730000D01*
X119189147Y-125510054D01*
X119511054Y-125028285D01*
X119624093Y-124460000D01*
X119511054Y-123891715D01*
X119189147Y-123409946D01*
X118859974Y-123190000D01*
X119189147Y-122970054D01*
X119511054Y-122488285D01*
X119624093Y-121920000D01*
X119511054Y-121351715D01*
X119189147Y-120869946D01*
X118859974Y-120650000D01*
X119189147Y-120430054D01*
X119511054Y-119948285D01*
X119624093Y-119380000D01*
X119511054Y-118811715D01*
X119189147Y-118329946D01*
X118859974Y-118110000D01*
X119189147Y-117890054D01*
X119511054Y-117408285D01*
X119624093Y-116840000D01*
X119511054Y-116271715D01*
X119189147Y-115789946D01*
X118859974Y-115570000D01*
X119189147Y-115350054D01*
X119511054Y-114868285D01*
X119624093Y-114300000D01*
X119511054Y-113731715D01*
X119189147Y-113249946D01*
X118859974Y-113030000D01*
X119189147Y-112810054D01*
X119511054Y-112328285D01*
X119624093Y-111760000D01*
X119511054Y-111191715D01*
X119189147Y-110709946D01*
X118859974Y-110490000D01*
X119189147Y-110270054D01*
X119511054Y-109788285D01*
X119624093Y-109220000D01*
X119511054Y-108651715D01*
X119189147Y-108169946D01*
X118859974Y-107950000D01*
X119189147Y-107730054D01*
X119511054Y-107248285D01*
X119624093Y-106680000D01*
X119511054Y-106111715D01*
X119189147Y-105629946D01*
X118884840Y-105426615D01*
X118950086Y-105399656D01*
X119368188Y-104982283D01*
X119594742Y-104436681D01*
X119594751Y-104425750D01*
X131865000Y-104425750D01*
X131865000Y-105116310D01*
X131961673Y-105349699D01*
X132021974Y-105410000D01*
X131961673Y-105470301D01*
X131865000Y-105703690D01*
X131865000Y-106394250D01*
X132023750Y-106553000D01*
X133223000Y-106553000D01*
X133223000Y-104267000D01*
X133477000Y-104267000D01*
X133477000Y-106553000D01*
X134676250Y-106553000D01*
X134835000Y-106394250D01*
X134835000Y-105703690D01*
X134738327Y-105470301D01*
X134678026Y-105410000D01*
X134738327Y-105349699D01*
X134835000Y-105116310D01*
X134835000Y-104425750D01*
X134676250Y-104267000D01*
X133477000Y-104267000D01*
X133223000Y-104267000D01*
X132023750Y-104267000D01*
X131865000Y-104425750D01*
X119594751Y-104425750D01*
X119595257Y-103845911D01*
X119369656Y-103299914D01*
X119015361Y-102945000D01*
X131955584Y-102945000D01*
X131865000Y-103163690D01*
X131865000Y-103163690D01*
G37*
X131865000Y-103163690D02*
X131865000Y-103854250D01*
X132023750Y-104013000D01*
X133223000Y-104013000D01*
X133223000Y-103993000D01*
X133477000Y-103993000D01*
X133477000Y-104013000D01*
X134676250Y-104013000D01*
X134835000Y-103854250D01*
X134835000Y-103163690D01*
X134744416Y-102945000D01*
X158929000Y-102945000D01*
X158929000Y-153341000D01*
X134502014Y-153341000D01*
X134751054Y-152968285D01*
X134864093Y-152400000D01*
X134751054Y-151831715D01*
X134429147Y-151349946D01*
X134099974Y-151130000D01*
X134429147Y-150910054D01*
X134751054Y-150428285D01*
X134834910Y-150006712D01*
X135871264Y-151043066D01*
X135788039Y-151167622D01*
X135675000Y-151735907D01*
X135675000Y-151794093D01*
X135788039Y-152362378D01*
X136109946Y-152844147D01*
X136591715Y-153166054D01*
X137160000Y-153279093D01*
X137728285Y-153166054D01*
X138210054Y-152844147D01*
X138430000Y-152514974D01*
X138649946Y-152844147D01*
X139131715Y-153166054D01*
X139700000Y-153279093D01*
X140268285Y-153166054D01*
X140750054Y-152844147D01*
X140970000Y-152514974D01*
X141189946Y-152844147D01*
X141671715Y-153166054D01*
X142240000Y-153279093D01*
X142808285Y-153166054D01*
X143290054Y-152844147D01*
X143493385Y-152539840D01*
X143520344Y-152605086D01*
X143937717Y-153023188D01*
X144483319Y-153249742D01*
X145074089Y-153250257D01*
X145620086Y-153024656D01*
X146038188Y-152607283D01*
X146264742Y-152061681D01*
X146264744Y-152059089D01*
X147104743Y-152059089D01*
X147330344Y-152605086D01*
X147747717Y-153023188D01*
X148293319Y-153249742D01*
X148884089Y-153250257D01*
X149430086Y-153024656D01*
X149848188Y-152607283D01*
X149876355Y-152539450D01*
X150079946Y-152844147D01*
X150561715Y-153166054D01*
X151130000Y-153279093D01*
X151698285Y-153166054D01*
X152180054Y-152844147D01*
X152393301Y-152525000D01*
X152406699Y-152525000D01*
X152619946Y-152844147D01*
X153101715Y-153166054D01*
X153670000Y-153279093D01*
X154238285Y-153166054D01*
X154720054Y-152844147D01*
X154933301Y-152525000D01*
X154946699Y-152525000D01*
X155159946Y-152844147D01*
X155641715Y-153166054D01*
X156210000Y-153279093D01*
X156778285Y-153166054D01*
X157260054Y-152844147D01*
X157581961Y-152362378D01*
X157695000Y-151794093D01*
X157695000Y-151735907D01*
X157581961Y-151167622D01*
X157260054Y-150685853D01*
X157254142Y-150681903D01*
X157419699Y-150613327D01*
X157598327Y-150434698D01*
X157695000Y-150201309D01*
X157695000Y-149510750D01*
X157536250Y-149352000D01*
X156337000Y-149352000D01*
X156337000Y-149372000D01*
X156083000Y-149372000D01*
X156083000Y-149352000D01*
X153797000Y-149352000D01*
X153797000Y-149372000D01*
X153543000Y-149372000D01*
X153543000Y-149352000D01*
X151257000Y-149352000D01*
X151257000Y-149372000D01*
X151003000Y-149372000D01*
X151003000Y-149352000D01*
X148717000Y-149352000D01*
X148717000Y-149372000D01*
X148463000Y-149372000D01*
X148463000Y-149352000D01*
X147263750Y-149352000D01*
X147105000Y-149510750D01*
X147105000Y-150201309D01*
X147201673Y-150434698D01*
X147380301Y-150613327D01*
X147565073Y-150689862D01*
X147331812Y-150922717D01*
X147105258Y-151468319D01*
X147104743Y-152059089D01*
X146264744Y-152059089D01*
X146265257Y-151470911D01*
X146039656Y-150924914D01*
X145622283Y-150506812D01*
X145076681Y-150280258D01*
X144750776Y-150279974D01*
X142719493Y-148248691D01*
X147105000Y-148248691D01*
X147105000Y-148939250D01*
X147263750Y-149098000D01*
X148463000Y-149098000D01*
X148463000Y-147898750D01*
X148717000Y-147898750D01*
X148717000Y-149098000D01*
X151003000Y-149098000D01*
X151003000Y-147898750D01*
X151257000Y-147898750D01*
X151257000Y-149098000D01*
X153543000Y-149098000D01*
X153543000Y-147898750D01*
X153797000Y-147898750D01*
X153797000Y-149098000D01*
X156083000Y-149098000D01*
X156083000Y-147898750D01*
X156337000Y-147898750D01*
X156337000Y-149098000D01*
X157536250Y-149098000D01*
X157695000Y-148939250D01*
X157695000Y-148248691D01*
X157598327Y-148015302D01*
X157419699Y-147836673D01*
X157186310Y-147740000D01*
X156495750Y-147740000D01*
X156337000Y-147898750D01*
X156083000Y-147898750D01*
X155924250Y-147740000D01*
X155233690Y-147740000D01*
X155000301Y-147836673D01*
X154940000Y-147896974D01*
X154879699Y-147836673D01*
X154646310Y-147740000D01*
X153955750Y-147740000D01*
X153797000Y-147898750D01*
X153543000Y-147898750D01*
X153384250Y-147740000D01*
X152693690Y-147740000D01*
X152460301Y-147836673D01*
X152400000Y-147896974D01*
X152339699Y-147836673D01*
X152106310Y-147740000D01*
X151415750Y-147740000D01*
X151257000Y-147898750D01*
X151003000Y-147898750D01*
X150844250Y-147740000D01*
X150153690Y-147740000D01*
X149920301Y-147836673D01*
X149860000Y-147896974D01*
X149799699Y-147836673D01*
X149566310Y-147740000D01*
X148875750Y-147740000D01*
X148717000Y-147898750D01*
X148463000Y-147898750D01*
X148304250Y-147740000D01*
X147613690Y-147740000D01*
X147380301Y-147836673D01*
X147201673Y-148015302D01*
X147105000Y-148248691D01*
X142719493Y-148248691D01*
X134903401Y-140432599D01*
X134722174Y-140311507D01*
X134751054Y-140268285D01*
X134864093Y-139700000D01*
X134751054Y-139131715D01*
X134429147Y-138649946D01*
X134099974Y-138430000D01*
X134429147Y-138210054D01*
X134751054Y-137728285D01*
X134864093Y-137160000D01*
X134751054Y-136591715D01*
X134429147Y-136109946D01*
X134099974Y-135890000D01*
X134429147Y-135670054D01*
X134751054Y-135188285D01*
X134864093Y-134620000D01*
X134751054Y-134051715D01*
X134429147Y-133569946D01*
X134099974Y-133350000D01*
X134429147Y-133130054D01*
X134751054Y-132648285D01*
X134864093Y-132080000D01*
X134751054Y-131511715D01*
X134429147Y-131029946D01*
X134099974Y-130810000D01*
X134429147Y-130590054D01*
X134751054Y-130108285D01*
X134864093Y-129540000D01*
X134751054Y-128971715D01*
X134429147Y-128489946D01*
X134099974Y-128270000D01*
X134429147Y-128050054D01*
X134751054Y-127568285D01*
X134864093Y-127000000D01*
X134751054Y-126431715D01*
X134429147Y-125949946D01*
X134099974Y-125730000D01*
X134429147Y-125510054D01*
X134751054Y-125028285D01*
X134864093Y-124460000D01*
X134751054Y-123891715D01*
X134429147Y-123409946D01*
X134099974Y-123190000D01*
X134429147Y-122970054D01*
X134751054Y-122488285D01*
X134864093Y-121920000D01*
X134751054Y-121351715D01*
X134429147Y-120869946D01*
X134099974Y-120650000D01*
X134429147Y-120430054D01*
X134751054Y-119948285D01*
X134864093Y-119380000D01*
X134751054Y-118811715D01*
X134429147Y-118329946D01*
X134099974Y-118110000D01*
X134429147Y-117890054D01*
X134751054Y-117408285D01*
X134864093Y-116840000D01*
X155330907Y-116840000D01*
X155443946Y-117408285D01*
X155765853Y-117890054D01*
X156095026Y-118110000D01*
X155765853Y-118329946D01*
X155443946Y-118811715D01*
X155330907Y-119380000D01*
X155443946Y-119948285D01*
X155765853Y-120430054D01*
X156095026Y-120650000D01*
X155765853Y-120869946D01*
X155443946Y-121351715D01*
X155330907Y-121920000D01*
X155443946Y-122488285D01*
X155765853Y-122970054D01*
X156095026Y-123190000D01*
X155765853Y-123409946D01*
X155443946Y-123891715D01*
X155330907Y-124460000D01*
X155443946Y-125028285D01*
X155765853Y-125510054D01*
X156095026Y-125730000D01*
X155765853Y-125949946D01*
X155443946Y-126431715D01*
X155330907Y-127000000D01*
X155443946Y-127568285D01*
X155765853Y-128050054D01*
X156095026Y-128270000D01*
X155765853Y-128489946D01*
X155443946Y-128971715D01*
X155330907Y-129540000D01*
X155443946Y-130108285D01*
X155765853Y-130590054D01*
X156095026Y-130810000D01*
X155765853Y-131029946D01*
X155443946Y-131511715D01*
X155330907Y-132080000D01*
X155443946Y-132648285D01*
X155765853Y-133130054D01*
X156095026Y-133350000D01*
X155765853Y-133569946D01*
X155443946Y-134051715D01*
X155330907Y-134620000D01*
X155443946Y-135188285D01*
X155765853Y-135670054D01*
X156095026Y-135890000D01*
X155765853Y-136109946D01*
X155443946Y-136591715D01*
X155330907Y-137160000D01*
X155443946Y-137728285D01*
X155765853Y-138210054D01*
X156247622Y-138531961D01*
X156815907Y-138645000D01*
X156874093Y-138645000D01*
X157442378Y-138531961D01*
X157924147Y-138210054D01*
X158246054Y-137728285D01*
X158359093Y-137160000D01*
X158246054Y-136591715D01*
X157924147Y-136109946D01*
X157594974Y-135890000D01*
X157924147Y-135670054D01*
X158246054Y-135188285D01*
X158359093Y-134620000D01*
X158246054Y-134051715D01*
X157924147Y-133569946D01*
X157594974Y-133350000D01*
X157924147Y-133130054D01*
X158246054Y-132648285D01*
X158359093Y-132080000D01*
X158246054Y-131511715D01*
X157924147Y-131029946D01*
X157594974Y-130810000D01*
X157924147Y-130590054D01*
X158246054Y-130108285D01*
X158359093Y-129540000D01*
X158246054Y-128971715D01*
X157924147Y-128489946D01*
X157594974Y-128270000D01*
X157924147Y-128050054D01*
X158246054Y-127568285D01*
X158359093Y-127000000D01*
X158246054Y-126431715D01*
X157924147Y-125949946D01*
X157594974Y-125730000D01*
X157924147Y-125510054D01*
X158246054Y-125028285D01*
X158359093Y-124460000D01*
X158246054Y-123891715D01*
X157924147Y-123409946D01*
X157594974Y-123190000D01*
X157924147Y-122970054D01*
X158246054Y-122488285D01*
X158359093Y-121920000D01*
X158246054Y-121351715D01*
X157924147Y-120869946D01*
X157594974Y-120650000D01*
X157924147Y-120430054D01*
X158246054Y-119948285D01*
X158359093Y-119380000D01*
X158246054Y-118811715D01*
X157924147Y-118329946D01*
X157594974Y-118110000D01*
X157924147Y-117890054D01*
X158246054Y-117408285D01*
X158359093Y-116840000D01*
X158246054Y-116271715D01*
X157924147Y-115789946D01*
X157619840Y-115586615D01*
X157685086Y-115559656D01*
X158103188Y-115142283D01*
X158329742Y-114596681D01*
X158330257Y-114005911D01*
X158104656Y-113459914D01*
X157687283Y-113041812D01*
X157141681Y-112815258D01*
X156550911Y-112814743D01*
X156004914Y-113040344D01*
X155586812Y-113457717D01*
X155360258Y-114003319D01*
X155359743Y-114594089D01*
X155585344Y-115140086D01*
X156002717Y-115558188D01*
X156070550Y-115586355D01*
X155765853Y-115789946D01*
X155443946Y-116271715D01*
X155330907Y-116840000D01*
X134864093Y-116840000D01*
X134751054Y-116271715D01*
X134429147Y-115789946D01*
X134099974Y-115570000D01*
X134429147Y-115350054D01*
X134751054Y-114868285D01*
X134864093Y-114300000D01*
X134751054Y-113731715D01*
X134429147Y-113249946D01*
X134099974Y-113030000D01*
X134429147Y-112810054D01*
X134751054Y-112328285D01*
X134864093Y-111760000D01*
X134751054Y-111191715D01*
X134429147Y-110709946D01*
X134099974Y-110490000D01*
X134429147Y-110270054D01*
X134751054Y-109788285D01*
X134864093Y-109220000D01*
X134751054Y-108651715D01*
X134429147Y-108169946D01*
X134385223Y-108140597D01*
X134559698Y-108068327D01*
X134738327Y-107889699D01*
X134835000Y-107656310D01*
X134835000Y-106965750D01*
X134676250Y-106807000D01*
X133477000Y-106807000D01*
X133477000Y-106827000D01*
X133223000Y-106827000D01*
X133223000Y-106807000D01*
X132023750Y-106807000D01*
X131865000Y-106965750D01*
X131865000Y-107656310D01*
X131961673Y-107889699D01*
X132140302Y-108068327D01*
X132314777Y-108140597D01*
X132270853Y-108169946D01*
X131948946Y-108651715D01*
X131835907Y-109220000D01*
X131948946Y-109788285D01*
X132270853Y-110270054D01*
X132600026Y-110490000D01*
X132270853Y-110709946D01*
X131948946Y-111191715D01*
X131835907Y-111760000D01*
X131948946Y-112328285D01*
X132270853Y-112810054D01*
X132600026Y-113030000D01*
X132270853Y-113249946D01*
X131948946Y-113731715D01*
X131835907Y-114300000D01*
X131948946Y-114868285D01*
X132270853Y-115350054D01*
X132600026Y-115570000D01*
X132270853Y-115789946D01*
X131948946Y-116271715D01*
X131835907Y-116840000D01*
X131948946Y-117408285D01*
X132270853Y-117890054D01*
X132600026Y-118110000D01*
X132270853Y-118329946D01*
X131948946Y-118811715D01*
X131835907Y-119380000D01*
X131948946Y-119948285D01*
X132270853Y-120430054D01*
X132600026Y-120650000D01*
X132270853Y-120869946D01*
X131948946Y-121351715D01*
X131835907Y-121920000D01*
X131948946Y-122488285D01*
X132270853Y-122970054D01*
X132600026Y-123190000D01*
X132270853Y-123409946D01*
X131948946Y-123891715D01*
X131835907Y-124460000D01*
X131948946Y-125028285D01*
X132270853Y-125510054D01*
X132600026Y-125730000D01*
X132270853Y-125949946D01*
X131948946Y-126431715D01*
X131835907Y-127000000D01*
X131948946Y-127568285D01*
X132270853Y-128050054D01*
X132600026Y-128270000D01*
X132270853Y-128489946D01*
X131948946Y-128971715D01*
X131835907Y-129540000D01*
X131948946Y-130108285D01*
X132270853Y-130590054D01*
X132600026Y-130810000D01*
X132270853Y-131029946D01*
X131948946Y-131511715D01*
X131835907Y-132080000D01*
X131948946Y-132648285D01*
X132270853Y-133130054D01*
X132600026Y-133350000D01*
X132270853Y-133569946D01*
X131948946Y-134051715D01*
X131835907Y-134620000D01*
X131948946Y-135188285D01*
X132270853Y-135670054D01*
X132600026Y-135890000D01*
X132270853Y-136109946D01*
X131948946Y-136591715D01*
X131835907Y-137160000D01*
X131948946Y-137728285D01*
X132270853Y-138210054D01*
X132600026Y-138430000D01*
X132270853Y-138649946D01*
X131948946Y-139131715D01*
X131835907Y-139700000D01*
X131937352Y-140210000D01*
X122234802Y-140210000D01*
X119551210Y-137526408D01*
X119624093Y-137160000D01*
X119511054Y-136591715D01*
X119189147Y-136109946D01*
X118859974Y-135890000D01*
X119189147Y-135670054D01*
X119511054Y-135188285D01*
X119624093Y-134620000D01*
X119511054Y-134051715D01*
X119189147Y-133569946D01*
X118859974Y-133350000D01*
X119189147Y-133130054D01*
X119511054Y-132648285D01*
X119624093Y-132080000D01*
X119511054Y-131511715D01*
X119189147Y-131029946D01*
X118859974Y-130810000D01*
X119189147Y-130590054D01*
X119511054Y-130108285D01*
X119624093Y-129540000D01*
X119511054Y-128971715D01*
X119189147Y-128489946D01*
X118859974Y-128270000D01*
X119189147Y-128050054D01*
X119511054Y-127568285D01*
X119624093Y-127000000D01*
X119511054Y-126431715D01*
X119189147Y-125949946D01*
X118859974Y-125730000D01*
X119189147Y-125510054D01*
X119511054Y-125028285D01*
X119624093Y-124460000D01*
X119511054Y-123891715D01*
X119189147Y-123409946D01*
X118859974Y-123190000D01*
X119189147Y-122970054D01*
X119511054Y-122488285D01*
X119624093Y-121920000D01*
X119511054Y-121351715D01*
X119189147Y-120869946D01*
X118859974Y-120650000D01*
X119189147Y-120430054D01*
X119511054Y-119948285D01*
X119624093Y-119380000D01*
X119511054Y-118811715D01*
X119189147Y-118329946D01*
X118859974Y-118110000D01*
X119189147Y-117890054D01*
X119511054Y-117408285D01*
X119624093Y-116840000D01*
X119511054Y-116271715D01*
X119189147Y-115789946D01*
X118859974Y-115570000D01*
X119189147Y-115350054D01*
X119511054Y-114868285D01*
X119624093Y-114300000D01*
X119511054Y-113731715D01*
X119189147Y-113249946D01*
X118859974Y-113030000D01*
X119189147Y-112810054D01*
X119511054Y-112328285D01*
X119624093Y-111760000D01*
X119511054Y-111191715D01*
X119189147Y-110709946D01*
X118859974Y-110490000D01*
X119189147Y-110270054D01*
X119511054Y-109788285D01*
X119624093Y-109220000D01*
X119511054Y-108651715D01*
X119189147Y-108169946D01*
X118859974Y-107950000D01*
X119189147Y-107730054D01*
X119511054Y-107248285D01*
X119624093Y-106680000D01*
X119511054Y-106111715D01*
X119189147Y-105629946D01*
X118884840Y-105426615D01*
X118950086Y-105399656D01*
X119368188Y-104982283D01*
X119594742Y-104436681D01*
X119594751Y-104425750D01*
X131865000Y-104425750D01*
X131865000Y-105116310D01*
X131961673Y-105349699D01*
X132021974Y-105410000D01*
X131961673Y-105470301D01*
X131865000Y-105703690D01*
X131865000Y-106394250D01*
X132023750Y-106553000D01*
X133223000Y-106553000D01*
X133223000Y-104267000D01*
X133477000Y-104267000D01*
X133477000Y-106553000D01*
X134676250Y-106553000D01*
X134835000Y-106394250D01*
X134835000Y-105703690D01*
X134738327Y-105470301D01*
X134678026Y-105410000D01*
X134738327Y-105349699D01*
X134835000Y-105116310D01*
X134835000Y-104425750D01*
X134676250Y-104267000D01*
X133477000Y-104267000D01*
X133223000Y-104267000D01*
X132023750Y-104267000D01*
X131865000Y-104425750D01*
X119594751Y-104425750D01*
X119595257Y-103845911D01*
X119369656Y-103299914D01*
X119015361Y-102945000D01*
X131955584Y-102945000D01*
X131865000Y-103163690D01*
M02*
