G04 #@! TF.FileFunction,Legend,Bot*
%FSLAX46Y46*%
G04 Gerber Fmt 4.6, Leading zero omitted, Abs format (unit mm)*
G04 Created by KiCad (PCBNEW 4.0.7) date 12/25/17 13:45:12*
%MOMM*%
%LPD*%
G01*
G04 APERTURE LIST*
%ADD10C,0.100000*%
%ADD11C,0.175000*%
%ADD12C,0.120000*%
%ADD13C,0.150000*%
G04 APERTURE END LIST*
D10*
D11*
X115440667Y-106419667D02*
X115440667Y-106086334D01*
X115774000Y-106053000D01*
X115740667Y-106086334D01*
X115707333Y-106153000D01*
X115707333Y-106319667D01*
X115740667Y-106386334D01*
X115774000Y-106419667D01*
X115840667Y-106453000D01*
X116007333Y-106453000D01*
X116074000Y-106419667D01*
X116107333Y-106386334D01*
X116140667Y-106319667D01*
X116140667Y-106153000D01*
X116107333Y-106086334D01*
X116074000Y-106053000D01*
X115440667Y-106653001D02*
X116140667Y-106886334D01*
X115440667Y-107119667D01*
X115474000Y-108559667D02*
X115440667Y-108493001D01*
X115440667Y-108393001D01*
X115474000Y-108293001D01*
X115540667Y-108226334D01*
X115607333Y-108193001D01*
X115740667Y-108159667D01*
X115840667Y-108159667D01*
X115974000Y-108193001D01*
X116040667Y-108226334D01*
X116107333Y-108293001D01*
X116140667Y-108393001D01*
X116140667Y-108459667D01*
X116107333Y-108559667D01*
X116074000Y-108593001D01*
X115840667Y-108593001D01*
X115840667Y-108459667D01*
X116140667Y-108893001D02*
X115440667Y-108893001D01*
X116140667Y-109293001D01*
X115440667Y-109293001D01*
X116140667Y-109626334D02*
X115440667Y-109626334D01*
X115440667Y-109793000D01*
X115474000Y-109893000D01*
X115540667Y-109959667D01*
X115607333Y-109993000D01*
X115740667Y-110026334D01*
X115840667Y-110026334D01*
X115974000Y-109993000D01*
X116040667Y-109959667D01*
X116107333Y-109893000D01*
X116140667Y-109793000D01*
X116140667Y-109626334D01*
X116074000Y-111516334D02*
X116107333Y-111483000D01*
X116140667Y-111383000D01*
X116140667Y-111316334D01*
X116107333Y-111216334D01*
X116040667Y-111149667D01*
X115974000Y-111116334D01*
X115840667Y-111083000D01*
X115740667Y-111083000D01*
X115607333Y-111116334D01*
X115540667Y-111149667D01*
X115474000Y-111216334D01*
X115440667Y-111316334D01*
X115440667Y-111383000D01*
X115474000Y-111483000D01*
X115507333Y-111516334D01*
X116107333Y-111783000D02*
X116140667Y-111883000D01*
X116140667Y-112049667D01*
X116107333Y-112116334D01*
X116074000Y-112149667D01*
X116007333Y-112183000D01*
X115940667Y-112183000D01*
X115874000Y-112149667D01*
X115840667Y-112116334D01*
X115807333Y-112049667D01*
X115774000Y-111916334D01*
X115740667Y-111849667D01*
X115707333Y-111816334D01*
X115640667Y-111783000D01*
X115574000Y-111783000D01*
X115507333Y-111816334D01*
X115474000Y-111849667D01*
X115440667Y-111916334D01*
X115440667Y-112083000D01*
X115474000Y-112183000D01*
X116107333Y-113352333D02*
X116140667Y-113452333D01*
X116140667Y-113619000D01*
X116107333Y-113685667D01*
X116074000Y-113719000D01*
X116007333Y-113752333D01*
X115940667Y-113752333D01*
X115874000Y-113719000D01*
X115840667Y-113685667D01*
X115807333Y-113619000D01*
X115774000Y-113485667D01*
X115740667Y-113419000D01*
X115707333Y-113385667D01*
X115640667Y-113352333D01*
X115574000Y-113352333D01*
X115507333Y-113385667D01*
X115474000Y-113419000D01*
X115440667Y-113485667D01*
X115440667Y-113652333D01*
X115474000Y-113752333D01*
X115440667Y-114185667D02*
X115440667Y-114319000D01*
X115474000Y-114385667D01*
X115540667Y-114452334D01*
X115674000Y-114485667D01*
X115907333Y-114485667D01*
X116040667Y-114452334D01*
X116107333Y-114385667D01*
X116140667Y-114319000D01*
X116140667Y-114185667D01*
X116107333Y-114119000D01*
X116040667Y-114052334D01*
X115907333Y-114019000D01*
X115674000Y-114019000D01*
X115540667Y-114052334D01*
X115474000Y-114119000D01*
X115440667Y-114185667D01*
X116107333Y-116092333D02*
X116140667Y-116192333D01*
X116140667Y-116359000D01*
X116107333Y-116425667D01*
X116074000Y-116459000D01*
X116007333Y-116492333D01*
X115940667Y-116492333D01*
X115874000Y-116459000D01*
X115840667Y-116425667D01*
X115807333Y-116359000D01*
X115774000Y-116225667D01*
X115740667Y-116159000D01*
X115707333Y-116125667D01*
X115640667Y-116092333D01*
X115574000Y-116092333D01*
X115507333Y-116125667D01*
X115474000Y-116159000D01*
X115440667Y-116225667D01*
X115440667Y-116392333D01*
X115474000Y-116492333D01*
X116140667Y-116792334D02*
X115440667Y-116792334D01*
X116107333Y-118353000D02*
X116140667Y-118453000D01*
X116140667Y-118619667D01*
X116107333Y-118686334D01*
X116074000Y-118719667D01*
X116007333Y-118753000D01*
X115940667Y-118753000D01*
X115874000Y-118719667D01*
X115840667Y-118686334D01*
X115807333Y-118619667D01*
X115774000Y-118486334D01*
X115740667Y-118419667D01*
X115707333Y-118386334D01*
X115640667Y-118353000D01*
X115574000Y-118353000D01*
X115507333Y-118386334D01*
X115474000Y-118419667D01*
X115440667Y-118486334D01*
X115440667Y-118653000D01*
X115474000Y-118753000D01*
X116074000Y-119453001D02*
X116107333Y-119419667D01*
X116140667Y-119319667D01*
X116140667Y-119253001D01*
X116107333Y-119153001D01*
X116040667Y-119086334D01*
X115974000Y-119053001D01*
X115840667Y-119019667D01*
X115740667Y-119019667D01*
X115607333Y-119053001D01*
X115540667Y-119086334D01*
X115474000Y-119153001D01*
X115440667Y-119253001D01*
X115440667Y-119319667D01*
X115474000Y-119419667D01*
X115507333Y-119453001D01*
X116140667Y-119753001D02*
X115440667Y-119753001D01*
X116140667Y-120153001D02*
X115740667Y-119853001D01*
X115440667Y-120153001D02*
X115840667Y-119753001D01*
X116140667Y-121159668D02*
X115440667Y-121159668D01*
X116140667Y-121493001D02*
X115440667Y-121493001D01*
X116140667Y-121893001D01*
X115440667Y-121893001D01*
X115440667Y-122126334D02*
X115440667Y-122526334D01*
X116140667Y-122326334D02*
X115440667Y-122326334D01*
D12*
X112335000Y-105223000D02*
X114995000Y-105223000D01*
X112335000Y-120523000D02*
X112335000Y-105223000D01*
X114995000Y-120523000D02*
X114995000Y-105223000D01*
X112335000Y-120523000D02*
X114995000Y-120523000D01*
X112335000Y-121793000D02*
X112335000Y-123123000D01*
X112335000Y-123123000D02*
X113665000Y-123123000D01*
X112335000Y-135449000D02*
X114995000Y-135449000D01*
X112335000Y-138049000D02*
X112335000Y-135449000D01*
X114995000Y-138049000D02*
X114995000Y-135449000D01*
X112335000Y-138049000D02*
X114995000Y-138049000D01*
X112335000Y-139319000D02*
X112335000Y-140649000D01*
X112335000Y-140649000D02*
X113665000Y-140649000D01*
X112335000Y-145990000D02*
X114995000Y-145990000D01*
X112335000Y-148590000D02*
X112335000Y-145990000D01*
X114995000Y-148590000D02*
X114995000Y-145990000D01*
X112335000Y-148590000D02*
X114995000Y-148590000D01*
X112335000Y-149860000D02*
X112335000Y-151190000D01*
X112335000Y-151190000D02*
X113665000Y-151190000D01*
D13*
X114553904Y-133612000D02*
X114649142Y-133564381D01*
X114791999Y-133564381D01*
X114934857Y-133612000D01*
X115030095Y-133707238D01*
X115077714Y-133802476D01*
X115125333Y-133992952D01*
X115125333Y-134135810D01*
X115077714Y-134326286D01*
X115030095Y-134421524D01*
X114934857Y-134516762D01*
X114791999Y-134564381D01*
X114696761Y-134564381D01*
X114553904Y-134516762D01*
X114506285Y-134469143D01*
X114506285Y-134135810D01*
X114696761Y-134135810D01*
X114077714Y-134564381D02*
X114077714Y-133564381D01*
X113506285Y-134564381D01*
X113506285Y-133564381D01*
X113030095Y-134564381D02*
X113030095Y-133564381D01*
X112792000Y-133564381D01*
X112649142Y-133612000D01*
X112553904Y-133707238D01*
X112506285Y-133802476D01*
X112458666Y-133992952D01*
X112458666Y-134135810D01*
X112506285Y-134326286D01*
X112553904Y-134421524D01*
X112649142Y-134516762D01*
X112792000Y-134564381D01*
X113030095Y-134564381D01*
X113855476Y-144105381D02*
X114331667Y-144105381D01*
X114379286Y-144581571D01*
X114331667Y-144533952D01*
X114236429Y-144486333D01*
X113998333Y-144486333D01*
X113903095Y-144533952D01*
X113855476Y-144581571D01*
X113807857Y-144676810D01*
X113807857Y-144914905D01*
X113855476Y-145010143D01*
X113903095Y-145057762D01*
X113998333Y-145105381D01*
X114236429Y-145105381D01*
X114331667Y-145057762D01*
X114379286Y-145010143D01*
X113522143Y-144105381D02*
X113188810Y-145105381D01*
X112855476Y-144105381D01*
M02*
