G04 #@! TF.FileFunction,Legend,Top*
%FSLAX46Y46*%
G04 Gerber Fmt 4.6, Leading zero omitted, Abs format (unit mm)*
G04 Created by KiCad (PCBNEW 4.0.7) date 12/25/17 13:45:12*
%MOMM*%
%LPD*%
G01*
G04 APERTURE LIST*
%ADD10C,0.100000*%
%ADD11C,0.200000*%
%ADD12C,0.175000*%
%ADD13C,0.150000*%
%ADD14C,0.120000*%
%ADD15C,0.010000*%
%ADD16C,0.160000*%
G04 APERTURE END LIST*
D10*
D11*
X123245619Y-123666809D02*
X124245619Y-123666809D01*
X123531333Y-124000143D01*
X124245619Y-124333476D01*
X123245619Y-124333476D01*
X123245619Y-125238238D02*
X123769429Y-125238238D01*
X123864667Y-125190619D01*
X123912286Y-125095381D01*
X123912286Y-124904904D01*
X123864667Y-124809666D01*
X123293238Y-125238238D02*
X123245619Y-125143000D01*
X123245619Y-124904904D01*
X123293238Y-124809666D01*
X123388476Y-124762047D01*
X123483714Y-124762047D01*
X123578952Y-124809666D01*
X123626571Y-124904904D01*
X123626571Y-125143000D01*
X123674190Y-125238238D01*
X123245619Y-125714428D02*
X123912286Y-125714428D01*
X123721810Y-125714428D02*
X123817048Y-125762047D01*
X123864667Y-125809666D01*
X123912286Y-125904904D01*
X123912286Y-126000143D01*
X123245619Y-126333476D02*
X124245619Y-126333476D01*
X123626571Y-126428714D02*
X123245619Y-126714429D01*
X123912286Y-126714429D02*
X123531333Y-126333476D01*
X123912286Y-127571572D02*
X123245619Y-127571572D01*
X123912286Y-127143000D02*
X123388476Y-127143000D01*
X123293238Y-127190619D01*
X123245619Y-127285857D01*
X123245619Y-127428715D01*
X123293238Y-127523953D01*
X123340857Y-127571572D01*
X123293238Y-128000143D02*
X123245619Y-128095381D01*
X123245619Y-128285857D01*
X123293238Y-128381096D01*
X123388476Y-128428715D01*
X123436095Y-128428715D01*
X123531333Y-128381096D01*
X123578952Y-128285857D01*
X123578952Y-128143000D01*
X123626571Y-128047762D01*
X123721810Y-128000143D01*
X123769429Y-128000143D01*
X123864667Y-128047762D01*
X123912286Y-128143000D01*
X123912286Y-128285857D01*
X123864667Y-128381096D01*
X124245619Y-129904906D02*
X123531333Y-129904906D01*
X123388476Y-129857286D01*
X123293238Y-129762048D01*
X123245619Y-129619191D01*
X123245619Y-129523953D01*
X123245619Y-130809668D02*
X123769429Y-130809668D01*
X123864667Y-130762049D01*
X123912286Y-130666811D01*
X123912286Y-130476334D01*
X123864667Y-130381096D01*
X123293238Y-130809668D02*
X123245619Y-130714430D01*
X123245619Y-130476334D01*
X123293238Y-130381096D01*
X123388476Y-130333477D01*
X123483714Y-130333477D01*
X123578952Y-130381096D01*
X123626571Y-130476334D01*
X123626571Y-130714430D01*
X123674190Y-130809668D01*
X123245619Y-131285858D02*
X124245619Y-131285858D01*
X123245619Y-131714430D02*
X123769429Y-131714430D01*
X123864667Y-131666811D01*
X123912286Y-131571573D01*
X123912286Y-131428715D01*
X123864667Y-131333477D01*
X123817048Y-131285858D01*
X123912286Y-132190620D02*
X123245619Y-132190620D01*
X123817048Y-132190620D02*
X123864667Y-132238239D01*
X123912286Y-132333477D01*
X123912286Y-132476335D01*
X123864667Y-132571573D01*
X123769429Y-132619192D01*
X123245619Y-132619192D01*
X126341238Y-121674714D02*
X126293619Y-121817571D01*
X126293619Y-122055667D01*
X126341238Y-122150905D01*
X126388857Y-122198524D01*
X126484095Y-122246143D01*
X126579333Y-122246143D01*
X126674571Y-122198524D01*
X126722190Y-122150905D01*
X126769810Y-122055667D01*
X126817429Y-121865190D01*
X126865048Y-121769952D01*
X126912667Y-121722333D01*
X127007905Y-121674714D01*
X127103143Y-121674714D01*
X127198381Y-121722333D01*
X127246000Y-121769952D01*
X127293619Y-121865190D01*
X127293619Y-122103286D01*
X127246000Y-122246143D01*
X127293619Y-122531857D02*
X127293619Y-123103286D01*
X126293619Y-122817571D02*
X127293619Y-122817571D01*
X126293619Y-123436619D02*
X127293619Y-123436619D01*
X126579333Y-123769953D01*
X127293619Y-124103286D01*
X126293619Y-124103286D01*
X127293619Y-124484238D02*
X127293619Y-125103286D01*
X126912667Y-124769952D01*
X126912667Y-124912810D01*
X126865048Y-125008048D01*
X126817429Y-125055667D01*
X126722190Y-125103286D01*
X126484095Y-125103286D01*
X126388857Y-125055667D01*
X126341238Y-125008048D01*
X126293619Y-124912810D01*
X126293619Y-124627095D01*
X126341238Y-124531857D01*
X126388857Y-124484238D01*
X127198381Y-125484238D02*
X127246000Y-125531857D01*
X127293619Y-125627095D01*
X127293619Y-125865191D01*
X127246000Y-125960429D01*
X127198381Y-126008048D01*
X127103143Y-126055667D01*
X127007905Y-126055667D01*
X126865048Y-126008048D01*
X126293619Y-125436619D01*
X126293619Y-126055667D01*
X126388857Y-127817572D02*
X126341238Y-127769953D01*
X126293619Y-127627096D01*
X126293619Y-127531858D01*
X126341238Y-127389000D01*
X126436476Y-127293762D01*
X126531714Y-127246143D01*
X126722190Y-127198524D01*
X126865048Y-127198524D01*
X127055524Y-127246143D01*
X127150762Y-127293762D01*
X127246000Y-127389000D01*
X127293619Y-127531858D01*
X127293619Y-127627096D01*
X127246000Y-127769953D01*
X127198381Y-127817572D01*
X126293619Y-128674715D02*
X126817429Y-128674715D01*
X126912667Y-128627096D01*
X126960286Y-128531858D01*
X126960286Y-128341381D01*
X126912667Y-128246143D01*
X126341238Y-128674715D02*
X126293619Y-128579477D01*
X126293619Y-128341381D01*
X126341238Y-128246143D01*
X126436476Y-128198524D01*
X126531714Y-128198524D01*
X126626952Y-128246143D01*
X126674571Y-128341381D01*
X126674571Y-128579477D01*
X126722190Y-128674715D01*
X126960286Y-129150905D02*
X126293619Y-129150905D01*
X126865048Y-129150905D02*
X126912667Y-129198524D01*
X126960286Y-129293762D01*
X126960286Y-129436620D01*
X126912667Y-129531858D01*
X126817429Y-129579477D01*
X126293619Y-129579477D01*
X126293619Y-130817572D02*
X127293619Y-130817572D01*
X126293619Y-131389001D01*
X127293619Y-131389001D01*
X126293619Y-132008048D02*
X126341238Y-131912810D01*
X126388857Y-131865191D01*
X126484095Y-131817572D01*
X126769810Y-131817572D01*
X126865048Y-131865191D01*
X126912667Y-131912810D01*
X126960286Y-132008048D01*
X126960286Y-132150906D01*
X126912667Y-132246144D01*
X126865048Y-132293763D01*
X126769810Y-132341382D01*
X126484095Y-132341382D01*
X126388857Y-132293763D01*
X126341238Y-132246144D01*
X126293619Y-132150906D01*
X126293619Y-132008048D01*
X126293619Y-133198525D02*
X127293619Y-133198525D01*
X126341238Y-133198525D02*
X126293619Y-133103287D01*
X126293619Y-132912810D01*
X126341238Y-132817572D01*
X126388857Y-132769953D01*
X126484095Y-132722334D01*
X126769810Y-132722334D01*
X126865048Y-132769953D01*
X126912667Y-132817572D01*
X126960286Y-132912810D01*
X126960286Y-133103287D01*
X126912667Y-133198525D01*
X126341238Y-134055668D02*
X126293619Y-133960430D01*
X126293619Y-133769953D01*
X126341238Y-133674715D01*
X126436476Y-133627096D01*
X126817429Y-133627096D01*
X126912667Y-133674715D01*
X126960286Y-133769953D01*
X126960286Y-133960430D01*
X126912667Y-134055668D01*
X126817429Y-134103287D01*
X126722190Y-134103287D01*
X126626952Y-133627096D01*
D12*
X143913334Y-150049667D02*
X143913334Y-149349667D01*
X144180000Y-149349667D01*
X144246667Y-149383000D01*
X144280000Y-149416333D01*
X144313334Y-149483000D01*
X144313334Y-149583000D01*
X144280000Y-149649667D01*
X144246667Y-149683000D01*
X144180000Y-149716333D01*
X143913334Y-149716333D01*
X144846667Y-149683000D02*
X144946667Y-149716333D01*
X144980000Y-149749667D01*
X145013334Y-149816333D01*
X145013334Y-149916333D01*
X144980000Y-149983000D01*
X144946667Y-150016333D01*
X144880000Y-150049667D01*
X144613334Y-150049667D01*
X144613334Y-149349667D01*
X144846667Y-149349667D01*
X144913334Y-149383000D01*
X144946667Y-149416333D01*
X144980000Y-149483000D01*
X144980000Y-149549667D01*
X144946667Y-149616333D01*
X144913334Y-149649667D01*
X144846667Y-149683000D01*
X144613334Y-149683000D01*
X145613334Y-149349667D02*
X145480000Y-149349667D01*
X145413334Y-149383000D01*
X145380000Y-149416333D01*
X145313334Y-149516333D01*
X145280000Y-149649667D01*
X145280000Y-149916333D01*
X145313334Y-149983000D01*
X145346667Y-150016333D01*
X145413334Y-150049667D01*
X145546667Y-150049667D01*
X145613334Y-150016333D01*
X145646667Y-149983000D01*
X145680000Y-149916333D01*
X145680000Y-149749667D01*
X145646667Y-149683000D01*
X145613334Y-149649667D01*
X145546667Y-149616333D01*
X145413334Y-149616333D01*
X145346667Y-149649667D01*
X145313334Y-149683000D01*
X145280000Y-149749667D01*
X141373334Y-150049667D02*
X141373334Y-149349667D01*
X141640000Y-149349667D01*
X141706667Y-149383000D01*
X141740000Y-149416333D01*
X141773334Y-149483000D01*
X141773334Y-149583000D01*
X141740000Y-149649667D01*
X141706667Y-149683000D01*
X141640000Y-149716333D01*
X141373334Y-149716333D01*
X142306667Y-149683000D02*
X142406667Y-149716333D01*
X142440000Y-149749667D01*
X142473334Y-149816333D01*
X142473334Y-149916333D01*
X142440000Y-149983000D01*
X142406667Y-150016333D01*
X142340000Y-150049667D01*
X142073334Y-150049667D01*
X142073334Y-149349667D01*
X142306667Y-149349667D01*
X142373334Y-149383000D01*
X142406667Y-149416333D01*
X142440000Y-149483000D01*
X142440000Y-149549667D01*
X142406667Y-149616333D01*
X142373334Y-149649667D01*
X142306667Y-149683000D01*
X142073334Y-149683000D01*
X142706667Y-149349667D02*
X143173334Y-149349667D01*
X142873334Y-150049667D01*
X138706334Y-150049667D02*
X138706334Y-149349667D01*
X138973000Y-149349667D01*
X139039667Y-149383000D01*
X139073000Y-149416333D01*
X139106334Y-149483000D01*
X139106334Y-149583000D01*
X139073000Y-149649667D01*
X139039667Y-149683000D01*
X138973000Y-149716333D01*
X138706334Y-149716333D01*
X139639667Y-149683000D02*
X139739667Y-149716333D01*
X139773000Y-149749667D01*
X139806334Y-149816333D01*
X139806334Y-149916333D01*
X139773000Y-149983000D01*
X139739667Y-150016333D01*
X139673000Y-150049667D01*
X139406334Y-150049667D01*
X139406334Y-149349667D01*
X139639667Y-149349667D01*
X139706334Y-149383000D01*
X139739667Y-149416333D01*
X139773000Y-149483000D01*
X139773000Y-149549667D01*
X139739667Y-149616333D01*
X139706334Y-149649667D01*
X139639667Y-149683000D01*
X139406334Y-149683000D01*
X140206334Y-149649667D02*
X140139667Y-149616333D01*
X140106334Y-149583000D01*
X140073000Y-149516333D01*
X140073000Y-149483000D01*
X140106334Y-149416333D01*
X140139667Y-149383000D01*
X140206334Y-149349667D01*
X140339667Y-149349667D01*
X140406334Y-149383000D01*
X140439667Y-149416333D01*
X140473000Y-149483000D01*
X140473000Y-149516333D01*
X140439667Y-149583000D01*
X140406334Y-149616333D01*
X140339667Y-149649667D01*
X140206334Y-149649667D01*
X140139667Y-149683000D01*
X140106334Y-149716333D01*
X140073000Y-149783000D01*
X140073000Y-149916333D01*
X140106334Y-149983000D01*
X140139667Y-150016333D01*
X140206334Y-150049667D01*
X140339667Y-150049667D01*
X140406334Y-150016333D01*
X140439667Y-149983000D01*
X140473000Y-149916333D01*
X140473000Y-149783000D01*
X140439667Y-149716333D01*
X140406334Y-149683000D01*
X140339667Y-149649667D01*
X136166334Y-150049667D02*
X136166334Y-149349667D01*
X136433000Y-149349667D01*
X136499667Y-149383000D01*
X136533000Y-149416333D01*
X136566334Y-149483000D01*
X136566334Y-149583000D01*
X136533000Y-149649667D01*
X136499667Y-149683000D01*
X136433000Y-149716333D01*
X136166334Y-149716333D01*
X137099667Y-149683000D02*
X137199667Y-149716333D01*
X137233000Y-149749667D01*
X137266334Y-149816333D01*
X137266334Y-149916333D01*
X137233000Y-149983000D01*
X137199667Y-150016333D01*
X137133000Y-150049667D01*
X136866334Y-150049667D01*
X136866334Y-149349667D01*
X137099667Y-149349667D01*
X137166334Y-149383000D01*
X137199667Y-149416333D01*
X137233000Y-149483000D01*
X137233000Y-149549667D01*
X137199667Y-149616333D01*
X137166334Y-149649667D01*
X137099667Y-149683000D01*
X136866334Y-149683000D01*
X137599667Y-150049667D02*
X137733000Y-150049667D01*
X137799667Y-150016333D01*
X137833000Y-149983000D01*
X137899667Y-149883000D01*
X137933000Y-149749667D01*
X137933000Y-149483000D01*
X137899667Y-149416333D01*
X137866334Y-149383000D01*
X137799667Y-149349667D01*
X137666334Y-149349667D01*
X137599667Y-149383000D01*
X137566334Y-149416333D01*
X137533000Y-149483000D01*
X137533000Y-149649667D01*
X137566334Y-149716333D01*
X137599667Y-149749667D01*
X137666334Y-149783000D01*
X137799667Y-149783000D01*
X137866334Y-149749667D01*
X137899667Y-149716333D01*
X137933000Y-149649667D01*
D11*
X124341095Y-103846381D02*
X124341095Y-104655905D01*
X124388714Y-104751143D01*
X124436333Y-104798762D01*
X124531571Y-104846381D01*
X124722048Y-104846381D01*
X124817286Y-104798762D01*
X124864905Y-104751143D01*
X124912524Y-104655905D01*
X124912524Y-103846381D01*
X125341095Y-104798762D02*
X125483952Y-104846381D01*
X125722048Y-104846381D01*
X125817286Y-104798762D01*
X125864905Y-104751143D01*
X125912524Y-104655905D01*
X125912524Y-104560667D01*
X125864905Y-104465429D01*
X125817286Y-104417810D01*
X125722048Y-104370190D01*
X125531571Y-104322571D01*
X125436333Y-104274952D01*
X125388714Y-104227333D01*
X125341095Y-104132095D01*
X125341095Y-104036857D01*
X125388714Y-103941619D01*
X125436333Y-103894000D01*
X125531571Y-103846381D01*
X125769667Y-103846381D01*
X125912524Y-103894000D01*
X126674429Y-104322571D02*
X126817286Y-104370190D01*
X126864905Y-104417810D01*
X126912524Y-104513048D01*
X126912524Y-104655905D01*
X126864905Y-104751143D01*
X126817286Y-104798762D01*
X126722048Y-104846381D01*
X126341095Y-104846381D01*
X126341095Y-103846381D01*
X126674429Y-103846381D01*
X126769667Y-103894000D01*
X126817286Y-103941619D01*
X126864905Y-104036857D01*
X126864905Y-104132095D01*
X126817286Y-104227333D01*
X126769667Y-104274952D01*
X126674429Y-104322571D01*
X126341095Y-104322571D01*
D12*
X158273000Y-149631333D02*
X158239667Y-149697999D01*
X158239667Y-149797999D01*
X158273000Y-149897999D01*
X158339667Y-149964666D01*
X158406333Y-149997999D01*
X158539667Y-150031333D01*
X158639667Y-150031333D01*
X158773000Y-149997999D01*
X158839667Y-149964666D01*
X158906333Y-149897999D01*
X158939667Y-149797999D01*
X158939667Y-149731333D01*
X158906333Y-149631333D01*
X158873000Y-149597999D01*
X158639667Y-149597999D01*
X158639667Y-149731333D01*
X158939667Y-149297999D02*
X158239667Y-149297999D01*
X158939667Y-148897999D01*
X158239667Y-148897999D01*
X158939667Y-148564666D02*
X158239667Y-148564666D01*
X158239667Y-148398000D01*
X158273000Y-148298000D01*
X158339667Y-148231333D01*
X158406333Y-148198000D01*
X158539667Y-148164666D01*
X158639667Y-148164666D01*
X158773000Y-148198000D01*
X158839667Y-148231333D01*
X158906333Y-148298000D01*
X158939667Y-148398000D01*
X158939667Y-148564666D01*
X158239667Y-151898333D02*
X158239667Y-152231666D01*
X158573000Y-152265000D01*
X158539667Y-152231666D01*
X158506333Y-152165000D01*
X158506333Y-151998333D01*
X158539667Y-151931666D01*
X158573000Y-151898333D01*
X158639667Y-151865000D01*
X158806333Y-151865000D01*
X158873000Y-151898333D01*
X158906333Y-151931666D01*
X158939667Y-151998333D01*
X158939667Y-152165000D01*
X158906333Y-152231666D01*
X158873000Y-152265000D01*
X158239667Y-151664999D02*
X158939667Y-151431666D01*
X158239667Y-151198333D01*
X155002667Y-137976666D02*
X154302667Y-137976666D01*
X154302667Y-137710000D01*
X154336000Y-137643333D01*
X154369333Y-137610000D01*
X154436000Y-137576666D01*
X154536000Y-137576666D01*
X154602667Y-137610000D01*
X154636000Y-137643333D01*
X154669333Y-137710000D01*
X154669333Y-137976666D01*
X154802667Y-137310000D02*
X154802667Y-136976666D01*
X155002667Y-137376666D02*
X154302667Y-137143333D01*
X155002667Y-136910000D01*
X154302667Y-136543333D02*
X154302667Y-136476666D01*
X154336000Y-136410000D01*
X154369333Y-136376666D01*
X154436000Y-136343333D01*
X154569333Y-136310000D01*
X154736000Y-136310000D01*
X154869333Y-136343333D01*
X154936000Y-136376666D01*
X154969333Y-136410000D01*
X155002667Y-136476666D01*
X155002667Y-136543333D01*
X154969333Y-136610000D01*
X154936000Y-136643333D01*
X154869333Y-136676666D01*
X154736000Y-136710000D01*
X154569333Y-136710000D01*
X154436000Y-136676666D01*
X154369333Y-136643333D01*
X154336000Y-136610000D01*
X154302667Y-136543333D01*
X155002667Y-135436666D02*
X154302667Y-135436666D01*
X154302667Y-135170000D01*
X154336000Y-135103333D01*
X154369333Y-135070000D01*
X154436000Y-135036666D01*
X154536000Y-135036666D01*
X154602667Y-135070000D01*
X154636000Y-135103333D01*
X154669333Y-135170000D01*
X154669333Y-135436666D01*
X154802667Y-134770000D02*
X154802667Y-134436666D01*
X155002667Y-134836666D02*
X154302667Y-134603333D01*
X155002667Y-134370000D01*
X155002667Y-133770000D02*
X155002667Y-134170000D01*
X155002667Y-133970000D02*
X154302667Y-133970000D01*
X154402667Y-134036666D01*
X154469333Y-134103333D01*
X154502667Y-134170000D01*
X155002667Y-132896666D02*
X154302667Y-132896666D01*
X154302667Y-132630000D01*
X154336000Y-132563333D01*
X154369333Y-132530000D01*
X154436000Y-132496666D01*
X154536000Y-132496666D01*
X154602667Y-132530000D01*
X154636000Y-132563333D01*
X154669333Y-132630000D01*
X154669333Y-132896666D01*
X154802667Y-132230000D02*
X154802667Y-131896666D01*
X155002667Y-132296666D02*
X154302667Y-132063333D01*
X155002667Y-131830000D01*
X154369333Y-131630000D02*
X154336000Y-131596666D01*
X154302667Y-131530000D01*
X154302667Y-131363333D01*
X154336000Y-131296666D01*
X154369333Y-131263333D01*
X154436000Y-131230000D01*
X154502667Y-131230000D01*
X154602667Y-131263333D01*
X155002667Y-131663333D01*
X155002667Y-131230000D01*
X155002667Y-130356666D02*
X154302667Y-130356666D01*
X154302667Y-130090000D01*
X154336000Y-130023333D01*
X154369333Y-129990000D01*
X154436000Y-129956666D01*
X154536000Y-129956666D01*
X154602667Y-129990000D01*
X154636000Y-130023333D01*
X154669333Y-130090000D01*
X154669333Y-130356666D01*
X154802667Y-129690000D02*
X154802667Y-129356666D01*
X155002667Y-129756666D02*
X154302667Y-129523333D01*
X155002667Y-129290000D01*
X154302667Y-129123333D02*
X154302667Y-128690000D01*
X154569333Y-128923333D01*
X154569333Y-128823333D01*
X154602667Y-128756666D01*
X154636000Y-128723333D01*
X154702667Y-128690000D01*
X154869333Y-128690000D01*
X154936000Y-128723333D01*
X154969333Y-128756666D01*
X155002667Y-128823333D01*
X155002667Y-129023333D01*
X154969333Y-129090000D01*
X154936000Y-129123333D01*
X155002667Y-125276666D02*
X154302667Y-125276666D01*
X154302667Y-125010000D01*
X154336000Y-124943333D01*
X154369333Y-124910000D01*
X154436000Y-124876666D01*
X154536000Y-124876666D01*
X154602667Y-124910000D01*
X154636000Y-124943333D01*
X154669333Y-125010000D01*
X154669333Y-125276666D01*
X154802667Y-124610000D02*
X154802667Y-124276666D01*
X155002667Y-124676666D02*
X154302667Y-124443333D01*
X155002667Y-124210000D01*
X154302667Y-123643333D02*
X154302667Y-123976666D01*
X154636000Y-124010000D01*
X154602667Y-123976666D01*
X154569333Y-123910000D01*
X154569333Y-123743333D01*
X154602667Y-123676666D01*
X154636000Y-123643333D01*
X154702667Y-123610000D01*
X154869333Y-123610000D01*
X154936000Y-123643333D01*
X154969333Y-123676666D01*
X155002667Y-123743333D01*
X155002667Y-123910000D01*
X154969333Y-123976666D01*
X154936000Y-124010000D01*
X155002667Y-127816666D02*
X154302667Y-127816666D01*
X154302667Y-127550000D01*
X154336000Y-127483333D01*
X154369333Y-127450000D01*
X154436000Y-127416666D01*
X154536000Y-127416666D01*
X154602667Y-127450000D01*
X154636000Y-127483333D01*
X154669333Y-127550000D01*
X154669333Y-127816666D01*
X154802667Y-127150000D02*
X154802667Y-126816666D01*
X155002667Y-127216666D02*
X154302667Y-126983333D01*
X155002667Y-126750000D01*
X154536000Y-126216666D02*
X155002667Y-126216666D01*
X154269333Y-126383333D02*
X154769333Y-126550000D01*
X154769333Y-126116666D01*
X155002667Y-122736666D02*
X154302667Y-122736666D01*
X154302667Y-122470000D01*
X154336000Y-122403333D01*
X154369333Y-122370000D01*
X154436000Y-122336666D01*
X154536000Y-122336666D01*
X154602667Y-122370000D01*
X154636000Y-122403333D01*
X154669333Y-122470000D01*
X154669333Y-122736666D01*
X154802667Y-122070000D02*
X154802667Y-121736666D01*
X155002667Y-122136666D02*
X154302667Y-121903333D01*
X155002667Y-121670000D01*
X154302667Y-121136666D02*
X154302667Y-121270000D01*
X154336000Y-121336666D01*
X154369333Y-121370000D01*
X154469333Y-121436666D01*
X154602667Y-121470000D01*
X154869333Y-121470000D01*
X154936000Y-121436666D01*
X154969333Y-121403333D01*
X155002667Y-121336666D01*
X155002667Y-121203333D01*
X154969333Y-121136666D01*
X154936000Y-121103333D01*
X154869333Y-121070000D01*
X154702667Y-121070000D01*
X154636000Y-121103333D01*
X154602667Y-121136666D01*
X154569333Y-121203333D01*
X154569333Y-121336666D01*
X154602667Y-121403333D01*
X154636000Y-121436666D01*
X154702667Y-121470000D01*
X155002667Y-120069666D02*
X154302667Y-120069666D01*
X154302667Y-119803000D01*
X154336000Y-119736333D01*
X154369333Y-119703000D01*
X154436000Y-119669666D01*
X154536000Y-119669666D01*
X154602667Y-119703000D01*
X154636000Y-119736333D01*
X154669333Y-119803000D01*
X154669333Y-120069666D01*
X154802667Y-119403000D02*
X154802667Y-119069666D01*
X155002667Y-119469666D02*
X154302667Y-119236333D01*
X155002667Y-119003000D01*
X154302667Y-118836333D02*
X154302667Y-118369666D01*
X155002667Y-118669666D01*
X155002667Y-117643166D02*
X154302667Y-117643166D01*
X154302667Y-117376500D01*
X154336000Y-117309833D01*
X154369333Y-117276500D01*
X154436000Y-117243166D01*
X154536000Y-117243166D01*
X154602667Y-117276500D01*
X154636000Y-117309833D01*
X154669333Y-117376500D01*
X154669333Y-117643166D01*
X154636000Y-116709833D02*
X154669333Y-116609833D01*
X154702667Y-116576500D01*
X154769333Y-116543166D01*
X154869333Y-116543166D01*
X154936000Y-116576500D01*
X154969333Y-116609833D01*
X155002667Y-116676500D01*
X155002667Y-116943166D01*
X154302667Y-116943166D01*
X154302667Y-116709833D01*
X154336000Y-116643166D01*
X154369333Y-116609833D01*
X154436000Y-116576500D01*
X154502667Y-116576500D01*
X154569333Y-116609833D01*
X154602667Y-116643166D01*
X154636000Y-116709833D01*
X154636000Y-116943166D01*
X154302667Y-116109833D02*
X154302667Y-116043166D01*
X154336000Y-115976500D01*
X154369333Y-115943166D01*
X154436000Y-115909833D01*
X154569333Y-115876500D01*
X154736000Y-115876500D01*
X154869333Y-115909833D01*
X154936000Y-115943166D01*
X154969333Y-115976500D01*
X155002667Y-116043166D01*
X155002667Y-116109833D01*
X154969333Y-116176500D01*
X154936000Y-116209833D01*
X154869333Y-116243166D01*
X154736000Y-116276500D01*
X154569333Y-116276500D01*
X154436000Y-116243166D01*
X154369333Y-116209833D01*
X154336000Y-116176500D01*
X154302667Y-116109833D01*
X155066167Y-115103166D02*
X154366167Y-115103166D01*
X154366167Y-114836500D01*
X154399500Y-114769833D01*
X154432833Y-114736500D01*
X154499500Y-114703166D01*
X154599500Y-114703166D01*
X154666167Y-114736500D01*
X154699500Y-114769833D01*
X154732833Y-114836500D01*
X154732833Y-115103166D01*
X154699500Y-114169833D02*
X154732833Y-114069833D01*
X154766167Y-114036500D01*
X154832833Y-114003166D01*
X154932833Y-114003166D01*
X154999500Y-114036500D01*
X155032833Y-114069833D01*
X155066167Y-114136500D01*
X155066167Y-114403166D01*
X154366167Y-114403166D01*
X154366167Y-114169833D01*
X154399500Y-114103166D01*
X154432833Y-114069833D01*
X154499500Y-114036500D01*
X154566167Y-114036500D01*
X154632833Y-114069833D01*
X154666167Y-114103166D01*
X154699500Y-114169833D01*
X154699500Y-114403166D01*
X155066167Y-113336500D02*
X155066167Y-113736500D01*
X155066167Y-113536500D02*
X154366167Y-113536500D01*
X154466167Y-113603166D01*
X154532833Y-113669833D01*
X154566167Y-113736500D01*
D13*
X147320000Y-150495000D02*
X147320000Y-147955000D01*
X147320000Y-147955000D02*
X157480000Y-147955000D01*
X157480000Y-147955000D02*
X157480000Y-150495000D01*
X157480000Y-150495000D02*
X147320000Y-150495000D01*
D14*
X116780000Y-102810000D02*
X118110000Y-102810000D01*
X116780000Y-104140000D02*
X116780000Y-102810000D01*
X116780000Y-105410000D02*
X119440000Y-105410000D01*
X119440000Y-105410000D02*
X119440000Y-153730000D01*
X116780000Y-105410000D02*
X116780000Y-153730000D01*
X116780000Y-153730000D02*
X119440000Y-153730000D01*
X132020000Y-153730000D02*
X134680000Y-153730000D01*
X132020000Y-105410000D02*
X132020000Y-153730000D01*
X134680000Y-105410000D02*
X134680000Y-153730000D01*
X132020000Y-105410000D02*
X134680000Y-105410000D01*
X132020000Y-104140000D02*
X132020000Y-102810000D01*
X132020000Y-102810000D02*
X133350000Y-102810000D01*
X141970000Y-112830000D02*
X139970000Y-112830000D01*
X139970000Y-110690000D02*
X141970000Y-110690000D01*
X141970000Y-116640000D02*
X139970000Y-116640000D01*
X139970000Y-114500000D02*
X141970000Y-114500000D01*
X141970000Y-120450000D02*
X139970000Y-120450000D01*
X139970000Y-118310000D02*
X141970000Y-118310000D01*
X141970000Y-124260000D02*
X139970000Y-124260000D01*
X139970000Y-122120000D02*
X141970000Y-122120000D01*
X141970000Y-128070000D02*
X139970000Y-128070000D01*
X139970000Y-125930000D02*
X141970000Y-125930000D01*
X141970000Y-131880000D02*
X139970000Y-131880000D01*
X139970000Y-129740000D02*
X141970000Y-129740000D01*
X141970000Y-135690000D02*
X139970000Y-135690000D01*
X139970000Y-133550000D02*
X141970000Y-133550000D01*
X141970000Y-139500000D02*
X139970000Y-139500000D01*
X139970000Y-137360000D02*
X141970000Y-137360000D01*
X141970000Y-143310000D02*
X139970000Y-143310000D01*
X139970000Y-141170000D02*
X141970000Y-141170000D01*
X141970000Y-147120000D02*
X139970000Y-147120000D01*
X139970000Y-144980000D02*
X141970000Y-144980000D01*
X148860000Y-108785000D02*
X150860000Y-108785000D01*
X150860000Y-110925000D02*
X148860000Y-110925000D01*
X148860000Y-112595000D02*
X150860000Y-112595000D01*
X150860000Y-114735000D02*
X148860000Y-114735000D01*
X148860000Y-116405000D02*
X150860000Y-116405000D01*
X150860000Y-118545000D02*
X148860000Y-118545000D01*
X148860000Y-120215000D02*
X150860000Y-120215000D01*
X150860000Y-122355000D02*
X148860000Y-122355000D01*
X148860000Y-124025000D02*
X150860000Y-124025000D01*
X150860000Y-126165000D02*
X148860000Y-126165000D01*
X148860000Y-127835000D02*
X150860000Y-127835000D01*
X150860000Y-129975000D02*
X148860000Y-129975000D01*
X148860000Y-131645000D02*
X150860000Y-131645000D01*
X150860000Y-133785000D02*
X148860000Y-133785000D01*
X148860000Y-135455000D02*
X150860000Y-135455000D01*
X150860000Y-137595000D02*
X148860000Y-137595000D01*
X148860000Y-139265000D02*
X150860000Y-139265000D01*
X150860000Y-141405000D02*
X148860000Y-141405000D01*
X148860000Y-143075000D02*
X150860000Y-143075000D01*
X150860000Y-145215000D02*
X148860000Y-145215000D01*
X112722000Y-130032000D02*
X112722000Y-128032000D01*
X114862000Y-128032000D02*
X114862000Y-130032000D01*
D15*
G36*
X150589270Y-103750850D02*
X150831270Y-103917371D01*
X151032285Y-104076553D01*
X151368699Y-104340651D01*
X151742364Y-104620285D01*
X152018637Y-104817333D01*
X152289945Y-105004377D01*
X152523974Y-105165830D01*
X152666686Y-105264408D01*
X152763457Y-105361995D01*
X152717500Y-105419630D01*
X152619702Y-105509338D01*
X152611667Y-105541503D01*
X152672839Y-105544541D01*
X152827794Y-105466285D01*
X152922977Y-105405302D01*
X153275025Y-105205317D01*
X153599525Y-105122325D01*
X153959449Y-105135872D01*
X154471329Y-105277382D01*
X154889422Y-105541519D01*
X155194007Y-105909889D01*
X155365359Y-106364099D01*
X155381726Y-106462279D01*
X155391507Y-106707841D01*
X155351058Y-106802465D01*
X155284992Y-106747108D01*
X155217925Y-106542726D01*
X155201734Y-106455285D01*
X155061145Y-106073869D01*
X154793470Y-105745053D01*
X154438237Y-105493731D01*
X154034975Y-105344795D01*
X153623213Y-105323141D01*
X153458667Y-105357563D01*
X153199022Y-105467584D01*
X152981698Y-105610860D01*
X152972029Y-105619625D01*
X152788582Y-105745225D01*
X152636374Y-105791201D01*
X152497642Y-105871302D01*
X152327357Y-106103020D01*
X152242015Y-106255796D01*
X152104447Y-106490018D01*
X151986792Y-106639442D01*
X151921071Y-106671803D01*
X151878295Y-106562547D01*
X151892769Y-106465909D01*
X151908733Y-106365349D01*
X151838769Y-106345704D01*
X151663939Y-106388368D01*
X151297852Y-106449560D01*
X150834888Y-106464609D01*
X150340600Y-106435225D01*
X149880541Y-106363116D01*
X149781073Y-106339270D01*
X149512206Y-106277827D01*
X149314900Y-106248745D01*
X149240840Y-106254938D01*
X149260783Y-106339700D01*
X149369978Y-106484605D01*
X149379889Y-106495290D01*
X149533714Y-106694027D01*
X149549072Y-106809594D01*
X149427105Y-106834551D01*
X149330834Y-106815070D01*
X149122990Y-106694578D01*
X148905141Y-106462571D01*
X148855226Y-106392589D01*
X148612451Y-106032060D01*
X147760033Y-106054952D01*
X147344190Y-106060181D01*
X147073009Y-106047637D01*
X146922517Y-106014949D01*
X146870655Y-105966963D01*
X146878231Y-105851611D01*
X147001865Y-105773132D01*
X147257599Y-105726940D01*
X147661474Y-105708448D01*
X147777622Y-105707629D01*
X148122164Y-105705510D01*
X148323765Y-105695325D01*
X148408817Y-105669008D01*
X148403711Y-105618494D01*
X148336000Y-105537000D01*
X148252138Y-105463171D01*
X148137512Y-105414347D01*
X147958640Y-105385508D01*
X147682035Y-105371635D01*
X147274215Y-105367708D01*
X147206371Y-105367666D01*
X146229986Y-105367666D01*
X146452502Y-105600500D01*
X146615157Y-105811986D01*
X146782399Y-106092691D01*
X146923943Y-106383691D01*
X147009506Y-106626064D01*
X147021807Y-106708222D01*
X146991387Y-106803243D01*
X146912987Y-106771425D01*
X146814142Y-106637493D01*
X146728684Y-106444971D01*
X146500137Y-105957893D01*
X146197007Y-105620247D01*
X145811543Y-105425876D01*
X145372667Y-105368299D01*
X144900820Y-105445792D01*
X144503359Y-105666279D01*
X144202145Y-106011776D01*
X144019038Y-106464295D01*
X144014102Y-106486081D01*
X143937744Y-106656472D01*
X143836234Y-106722333D01*
X143751265Y-106676042D01*
X143769021Y-106531833D01*
X143895287Y-106211642D01*
X144063517Y-105894172D01*
X144211227Y-105684546D01*
X144287335Y-105583117D01*
X144242114Y-105557321D01*
X144095184Y-105577226D01*
X143908540Y-105606941D01*
X143602730Y-105653851D01*
X143226132Y-105710586D01*
X142959667Y-105750223D01*
X142390638Y-105844260D01*
X141802008Y-105958719D01*
X141231643Y-106084735D01*
X140717411Y-106213445D01*
X140297180Y-106335984D01*
X140020311Y-106438253D01*
X139831072Y-106529880D01*
X139783934Y-106580361D01*
X139863498Y-106610751D01*
X139890500Y-106615785D01*
X140039410Y-106687889D01*
X140081000Y-106770555D01*
X140064010Y-106859001D01*
X139985724Y-106875762D01*
X139805167Y-106823423D01*
X139721167Y-106793260D01*
X139553862Y-106693961D01*
X139488334Y-106583516D01*
X139569532Y-106462518D01*
X139801656Y-106326528D01*
X140167494Y-106180669D01*
X140649837Y-106030061D01*
X141231475Y-105879828D01*
X141895197Y-105735090D01*
X142623793Y-105600969D01*
X142985430Y-105542799D01*
X143749484Y-105398095D01*
X143962654Y-105342060D01*
X148684224Y-105342060D01*
X148862491Y-105586781D01*
X149062926Y-105782926D01*
X149350045Y-105927926D01*
X149738646Y-106023909D01*
X150243529Y-106073002D01*
X150879492Y-106077332D01*
X151661334Y-106039026D01*
X151892000Y-106022217D01*
X152087459Y-105971666D01*
X152228768Y-105876298D01*
X152269553Y-105772727D01*
X152249885Y-105739662D01*
X152148318Y-105709870D01*
X151910107Y-105668318D01*
X151567207Y-105618965D01*
X151151577Y-105565771D01*
X150695173Y-105512696D01*
X150229953Y-105463700D01*
X149787873Y-105422742D01*
X149526112Y-105402166D01*
X148684224Y-105342060D01*
X143962654Y-105342060D01*
X144460350Y-105211233D01*
X144648332Y-105147844D01*
X145415246Y-105147844D01*
X145493090Y-105168795D01*
X145700742Y-105178837D01*
X145999122Y-105179346D01*
X146349150Y-105171698D01*
X146711748Y-105157269D01*
X147047836Y-105137433D01*
X147318334Y-105113567D01*
X147484163Y-105087047D01*
X147514960Y-105073929D01*
X147511768Y-104993226D01*
X147742509Y-104993226D01*
X147748817Y-105037871D01*
X147855516Y-105111988D01*
X147942795Y-105053789D01*
X147955000Y-104989323D01*
X147898816Y-104903873D01*
X147828486Y-104913529D01*
X147742509Y-104993226D01*
X147511768Y-104993226D01*
X147511078Y-104975793D01*
X147419155Y-104828849D01*
X147284808Y-104688255D01*
X147153653Y-104609171D01*
X147127548Y-104605472D01*
X146963094Y-104629140D01*
X146704054Y-104691775D01*
X146391370Y-104780409D01*
X146065983Y-104882073D01*
X145768834Y-104983799D01*
X145540865Y-105072619D01*
X145423018Y-105135564D01*
X145415246Y-105147844D01*
X144648332Y-105147844D01*
X144836605Y-105084357D01*
X145161844Y-104968372D01*
X145551608Y-104837977D01*
X145970012Y-104704134D01*
X146381169Y-104577809D01*
X146749194Y-104469965D01*
X147038199Y-104391565D01*
X147212299Y-104353574D01*
X147234791Y-104351666D01*
X147320428Y-104407770D01*
X147465195Y-104545780D01*
X147493376Y-104575696D01*
X147701000Y-104799726D01*
X147701000Y-104575696D01*
X147727817Y-104410749D01*
X147783493Y-104351666D01*
X147875798Y-104421577D01*
X147986370Y-104589189D01*
X148080652Y-104791317D01*
X148124089Y-104964780D01*
X148124334Y-104974861D01*
X148165201Y-105040255D01*
X148304884Y-105088664D01*
X148569005Y-105126178D01*
X148865167Y-105150895D01*
X149235537Y-105180267D01*
X149715512Y-105222867D01*
X150246393Y-105273273D01*
X150769483Y-105326061D01*
X150833667Y-105332796D01*
X151283241Y-105380162D01*
X151682030Y-105422091D01*
X151995152Y-105454922D01*
X152187727Y-105474995D01*
X152221554Y-105478466D01*
X152377431Y-105461119D01*
X152395342Y-105377790D01*
X152282030Y-105250439D01*
X152117902Y-105140906D01*
X151905235Y-105001819D01*
X151615439Y-104789221D01*
X151299112Y-104540778D01*
X151179602Y-104442406D01*
X150905170Y-104219517D01*
X150676160Y-104045361D01*
X150525170Y-103944143D01*
X150487324Y-103928333D01*
X150438511Y-104003815D01*
X150406825Y-104193621D01*
X150401894Y-104288166D01*
X150369692Y-104677116D01*
X150298217Y-104951490D01*
X150194359Y-105086052D01*
X150182784Y-105090738D01*
X150141388Y-105033101D01*
X150125005Y-104854285D01*
X150131086Y-104600183D01*
X150157079Y-104316692D01*
X150200433Y-104049706D01*
X150250927Y-103864833D01*
X150324094Y-103731354D01*
X150428543Y-103691102D01*
X150589270Y-103750850D01*
X150589270Y-103750850D01*
G37*
X150589270Y-103750850D02*
X150831270Y-103917371D01*
X151032285Y-104076553D01*
X151368699Y-104340651D01*
X151742364Y-104620285D01*
X152018637Y-104817333D01*
X152289945Y-105004377D01*
X152523974Y-105165830D01*
X152666686Y-105264408D01*
X152763457Y-105361995D01*
X152717500Y-105419630D01*
X152619702Y-105509338D01*
X152611667Y-105541503D01*
X152672839Y-105544541D01*
X152827794Y-105466285D01*
X152922977Y-105405302D01*
X153275025Y-105205317D01*
X153599525Y-105122325D01*
X153959449Y-105135872D01*
X154471329Y-105277382D01*
X154889422Y-105541519D01*
X155194007Y-105909889D01*
X155365359Y-106364099D01*
X155381726Y-106462279D01*
X155391507Y-106707841D01*
X155351058Y-106802465D01*
X155284992Y-106747108D01*
X155217925Y-106542726D01*
X155201734Y-106455285D01*
X155061145Y-106073869D01*
X154793470Y-105745053D01*
X154438237Y-105493731D01*
X154034975Y-105344795D01*
X153623213Y-105323141D01*
X153458667Y-105357563D01*
X153199022Y-105467584D01*
X152981698Y-105610860D01*
X152972029Y-105619625D01*
X152788582Y-105745225D01*
X152636374Y-105791201D01*
X152497642Y-105871302D01*
X152327357Y-106103020D01*
X152242015Y-106255796D01*
X152104447Y-106490018D01*
X151986792Y-106639442D01*
X151921071Y-106671803D01*
X151878295Y-106562547D01*
X151892769Y-106465909D01*
X151908733Y-106365349D01*
X151838769Y-106345704D01*
X151663939Y-106388368D01*
X151297852Y-106449560D01*
X150834888Y-106464609D01*
X150340600Y-106435225D01*
X149880541Y-106363116D01*
X149781073Y-106339270D01*
X149512206Y-106277827D01*
X149314900Y-106248745D01*
X149240840Y-106254938D01*
X149260783Y-106339700D01*
X149369978Y-106484605D01*
X149379889Y-106495290D01*
X149533714Y-106694027D01*
X149549072Y-106809594D01*
X149427105Y-106834551D01*
X149330834Y-106815070D01*
X149122990Y-106694578D01*
X148905141Y-106462571D01*
X148855226Y-106392589D01*
X148612451Y-106032060D01*
X147760033Y-106054952D01*
X147344190Y-106060181D01*
X147073009Y-106047637D01*
X146922517Y-106014949D01*
X146870655Y-105966963D01*
X146878231Y-105851611D01*
X147001865Y-105773132D01*
X147257599Y-105726940D01*
X147661474Y-105708448D01*
X147777622Y-105707629D01*
X148122164Y-105705510D01*
X148323765Y-105695325D01*
X148408817Y-105669008D01*
X148403711Y-105618494D01*
X148336000Y-105537000D01*
X148252138Y-105463171D01*
X148137512Y-105414347D01*
X147958640Y-105385508D01*
X147682035Y-105371635D01*
X147274215Y-105367708D01*
X147206371Y-105367666D01*
X146229986Y-105367666D01*
X146452502Y-105600500D01*
X146615157Y-105811986D01*
X146782399Y-106092691D01*
X146923943Y-106383691D01*
X147009506Y-106626064D01*
X147021807Y-106708222D01*
X146991387Y-106803243D01*
X146912987Y-106771425D01*
X146814142Y-106637493D01*
X146728684Y-106444971D01*
X146500137Y-105957893D01*
X146197007Y-105620247D01*
X145811543Y-105425876D01*
X145372667Y-105368299D01*
X144900820Y-105445792D01*
X144503359Y-105666279D01*
X144202145Y-106011776D01*
X144019038Y-106464295D01*
X144014102Y-106486081D01*
X143937744Y-106656472D01*
X143836234Y-106722333D01*
X143751265Y-106676042D01*
X143769021Y-106531833D01*
X143895287Y-106211642D01*
X144063517Y-105894172D01*
X144211227Y-105684546D01*
X144287335Y-105583117D01*
X144242114Y-105557321D01*
X144095184Y-105577226D01*
X143908540Y-105606941D01*
X143602730Y-105653851D01*
X143226132Y-105710586D01*
X142959667Y-105750223D01*
X142390638Y-105844260D01*
X141802008Y-105958719D01*
X141231643Y-106084735D01*
X140717411Y-106213445D01*
X140297180Y-106335984D01*
X140020311Y-106438253D01*
X139831072Y-106529880D01*
X139783934Y-106580361D01*
X139863498Y-106610751D01*
X139890500Y-106615785D01*
X140039410Y-106687889D01*
X140081000Y-106770555D01*
X140064010Y-106859001D01*
X139985724Y-106875762D01*
X139805167Y-106823423D01*
X139721167Y-106793260D01*
X139553862Y-106693961D01*
X139488334Y-106583516D01*
X139569532Y-106462518D01*
X139801656Y-106326528D01*
X140167494Y-106180669D01*
X140649837Y-106030061D01*
X141231475Y-105879828D01*
X141895197Y-105735090D01*
X142623793Y-105600969D01*
X142985430Y-105542799D01*
X143749484Y-105398095D01*
X143962654Y-105342060D01*
X148684224Y-105342060D01*
X148862491Y-105586781D01*
X149062926Y-105782926D01*
X149350045Y-105927926D01*
X149738646Y-106023909D01*
X150243529Y-106073002D01*
X150879492Y-106077332D01*
X151661334Y-106039026D01*
X151892000Y-106022217D01*
X152087459Y-105971666D01*
X152228768Y-105876298D01*
X152269553Y-105772727D01*
X152249885Y-105739662D01*
X152148318Y-105709870D01*
X151910107Y-105668318D01*
X151567207Y-105618965D01*
X151151577Y-105565771D01*
X150695173Y-105512696D01*
X150229953Y-105463700D01*
X149787873Y-105422742D01*
X149526112Y-105402166D01*
X148684224Y-105342060D01*
X143962654Y-105342060D01*
X144460350Y-105211233D01*
X144648332Y-105147844D01*
X145415246Y-105147844D01*
X145493090Y-105168795D01*
X145700742Y-105178837D01*
X145999122Y-105179346D01*
X146349150Y-105171698D01*
X146711748Y-105157269D01*
X147047836Y-105137433D01*
X147318334Y-105113567D01*
X147484163Y-105087047D01*
X147514960Y-105073929D01*
X147511768Y-104993226D01*
X147742509Y-104993226D01*
X147748817Y-105037871D01*
X147855516Y-105111988D01*
X147942795Y-105053789D01*
X147955000Y-104989323D01*
X147898816Y-104903873D01*
X147828486Y-104913529D01*
X147742509Y-104993226D01*
X147511768Y-104993226D01*
X147511078Y-104975793D01*
X147419155Y-104828849D01*
X147284808Y-104688255D01*
X147153653Y-104609171D01*
X147127548Y-104605472D01*
X146963094Y-104629140D01*
X146704054Y-104691775D01*
X146391370Y-104780409D01*
X146065983Y-104882073D01*
X145768834Y-104983799D01*
X145540865Y-105072619D01*
X145423018Y-105135564D01*
X145415246Y-105147844D01*
X144648332Y-105147844D01*
X144836605Y-105084357D01*
X145161844Y-104968372D01*
X145551608Y-104837977D01*
X145970012Y-104704134D01*
X146381169Y-104577809D01*
X146749194Y-104469965D01*
X147038199Y-104391565D01*
X147212299Y-104353574D01*
X147234791Y-104351666D01*
X147320428Y-104407770D01*
X147465195Y-104545780D01*
X147493376Y-104575696D01*
X147701000Y-104799726D01*
X147701000Y-104575696D01*
X147727817Y-104410749D01*
X147783493Y-104351666D01*
X147875798Y-104421577D01*
X147986370Y-104589189D01*
X148080652Y-104791317D01*
X148124089Y-104964780D01*
X148124334Y-104974861D01*
X148165201Y-105040255D01*
X148304884Y-105088664D01*
X148569005Y-105126178D01*
X148865167Y-105150895D01*
X149235537Y-105180267D01*
X149715512Y-105222867D01*
X150246393Y-105273273D01*
X150769483Y-105326061D01*
X150833667Y-105332796D01*
X151283241Y-105380162D01*
X151682030Y-105422091D01*
X151995152Y-105454922D01*
X152187727Y-105474995D01*
X152221554Y-105478466D01*
X152377431Y-105461119D01*
X152395342Y-105377790D01*
X152282030Y-105250439D01*
X152117902Y-105140906D01*
X151905235Y-105001819D01*
X151615439Y-104789221D01*
X151299112Y-104540778D01*
X151179602Y-104442406D01*
X150905170Y-104219517D01*
X150676160Y-104045361D01*
X150525170Y-103944143D01*
X150487324Y-103928333D01*
X150438511Y-104003815D01*
X150406825Y-104193621D01*
X150401894Y-104288166D01*
X150369692Y-104677116D01*
X150298217Y-104951490D01*
X150194359Y-105086052D01*
X150182784Y-105090738D01*
X150141388Y-105033101D01*
X150125005Y-104854285D01*
X150131086Y-104600183D01*
X150157079Y-104316692D01*
X150200433Y-104049706D01*
X150250927Y-103864833D01*
X150324094Y-103731354D01*
X150428543Y-103691102D01*
X150589270Y-103750850D01*
G36*
X143850525Y-105812963D02*
X143860780Y-105817223D01*
X143844065Y-105906103D01*
X143755916Y-106083107D01*
X143626250Y-106300707D01*
X143484982Y-106511375D01*
X143362031Y-106667580D01*
X143291071Y-106722333D01*
X143222312Y-106687426D01*
X143247032Y-106567366D01*
X143370577Y-106339148D01*
X143385979Y-106313741D01*
X143557659Y-106032150D01*
X143068163Y-106091605D01*
X142653211Y-106163446D01*
X142147411Y-106282435D01*
X141616173Y-106430468D01*
X141124906Y-106589446D01*
X140768737Y-106727924D01*
X140488215Y-106843847D01*
X140328225Y-106884749D01*
X140259675Y-106854899D01*
X140250334Y-106803991D01*
X140328679Y-106711341D01*
X140545175Y-106593968D01*
X140872012Y-106460774D01*
X141281378Y-106320662D01*
X141745464Y-106182532D01*
X142236459Y-106055288D01*
X142726552Y-105947832D01*
X143157389Y-105873426D01*
X143473189Y-105833012D01*
X143718563Y-105811713D01*
X143850525Y-105812963D01*
X143850525Y-105812963D01*
G37*
X143850525Y-105812963D02*
X143860780Y-105817223D01*
X143844065Y-105906103D01*
X143755916Y-106083107D01*
X143626250Y-106300707D01*
X143484982Y-106511375D01*
X143362031Y-106667580D01*
X143291071Y-106722333D01*
X143222312Y-106687426D01*
X143247032Y-106567366D01*
X143370577Y-106339148D01*
X143385979Y-106313741D01*
X143557659Y-106032150D01*
X143068163Y-106091605D01*
X142653211Y-106163446D01*
X142147411Y-106282435D01*
X141616173Y-106430468D01*
X141124906Y-106589446D01*
X140768737Y-106727924D01*
X140488215Y-106843847D01*
X140328225Y-106884749D01*
X140259675Y-106854899D01*
X140250334Y-106803991D01*
X140328679Y-106711341D01*
X140545175Y-106593968D01*
X140872012Y-106460774D01*
X141281378Y-106320662D01*
X141745464Y-106182532D01*
X142236459Y-106055288D01*
X142726552Y-105947832D01*
X143157389Y-105873426D01*
X143473189Y-105833012D01*
X143718563Y-105811713D01*
X143850525Y-105812963D01*
G36*
X145042970Y-106221777D02*
X145141092Y-106383007D01*
X145150346Y-106577428D01*
X145073024Y-106727975D01*
X145027075Y-106755608D01*
X144832987Y-106804100D01*
X144713794Y-106754808D01*
X144709445Y-106750555D01*
X144647063Y-106600383D01*
X144672286Y-106468333D01*
X144822334Y-106468333D01*
X144886763Y-106550539D01*
X144907000Y-106553000D01*
X144989207Y-106488570D01*
X144991667Y-106468333D01*
X144927238Y-106386126D01*
X144907000Y-106383666D01*
X144824794Y-106448095D01*
X144822334Y-106468333D01*
X144672286Y-106468333D01*
X144680760Y-106423975D01*
X144779634Y-106270323D01*
X144912781Y-106188421D01*
X145042970Y-106221777D01*
X145042970Y-106221777D01*
G37*
X145042970Y-106221777D02*
X145141092Y-106383007D01*
X145150346Y-106577428D01*
X145073024Y-106727975D01*
X145027075Y-106755608D01*
X144832987Y-106804100D01*
X144713794Y-106754808D01*
X144709445Y-106750555D01*
X144647063Y-106600383D01*
X144672286Y-106468333D01*
X144822334Y-106468333D01*
X144886763Y-106550539D01*
X144907000Y-106553000D01*
X144989207Y-106488570D01*
X144991667Y-106468333D01*
X144927238Y-106386126D01*
X144907000Y-106383666D01*
X144824794Y-106448095D01*
X144822334Y-106468333D01*
X144672286Y-106468333D01*
X144680760Y-106423975D01*
X144779634Y-106270323D01*
X144912781Y-106188421D01*
X145042970Y-106221777D01*
G36*
X145424158Y-106656636D02*
X145427700Y-106680000D01*
X145361785Y-106779274D01*
X145336684Y-106790772D01*
X145259481Y-106749901D01*
X145245667Y-106680000D01*
X145288627Y-106574626D01*
X145336684Y-106569227D01*
X145424158Y-106656636D01*
X145424158Y-106656636D01*
G37*
X145424158Y-106656636D02*
X145427700Y-106680000D01*
X145361785Y-106779274D01*
X145336684Y-106790772D01*
X145259481Y-106749901D01*
X145245667Y-106680000D01*
X145288627Y-106574626D01*
X145336684Y-106569227D01*
X145424158Y-106656636D01*
G36*
X145854778Y-106199496D02*
X145933063Y-106265773D01*
X146065291Y-106452703D01*
X146077123Y-106632261D01*
X145965878Y-106752598D01*
X145958409Y-106755608D01*
X145844435Y-106796497D01*
X145767563Y-106783805D01*
X145647834Y-106715551D01*
X145514741Y-106566715D01*
X145529929Y-106463336D01*
X145753667Y-106463336D01*
X145815127Y-106549554D01*
X145838334Y-106553000D01*
X145920799Y-106524113D01*
X145923000Y-106515663D01*
X145863671Y-106443377D01*
X145838334Y-106426000D01*
X145760315Y-106432712D01*
X145753667Y-106463336D01*
X145529929Y-106463336D01*
X145542015Y-106381073D01*
X145636730Y-106258698D01*
X145752107Y-106168747D01*
X145854778Y-106199496D01*
X145854778Y-106199496D01*
G37*
X145854778Y-106199496D02*
X145933063Y-106265773D01*
X146065291Y-106452703D01*
X146077123Y-106632261D01*
X145965878Y-106752598D01*
X145958409Y-106755608D01*
X145844435Y-106796497D01*
X145767563Y-106783805D01*
X145647834Y-106715551D01*
X145514741Y-106566715D01*
X145529929Y-106463336D01*
X145753667Y-106463336D01*
X145815127Y-106549554D01*
X145838334Y-106553000D01*
X145920799Y-106524113D01*
X145923000Y-106515663D01*
X145863671Y-106443377D01*
X145838334Y-106426000D01*
X145760315Y-106432712D01*
X145753667Y-106463336D01*
X145529929Y-106463336D01*
X145542015Y-106381073D01*
X145636730Y-106258698D01*
X145752107Y-106168747D01*
X145854778Y-106199496D01*
G36*
X153611247Y-106329429D02*
X153687689Y-106497932D01*
X153634291Y-106672014D01*
X153633557Y-106672903D01*
X153469146Y-106783776D01*
X153288287Y-106795408D01*
X153161617Y-106705783D01*
X153152823Y-106686615D01*
X153151971Y-106514011D01*
X153157095Y-106503611D01*
X153380351Y-106503611D01*
X153395918Y-106613425D01*
X153424820Y-106614736D01*
X153445031Y-106501419D01*
X153431504Y-106452458D01*
X153393909Y-106420388D01*
X153380351Y-106503611D01*
X153157095Y-106503611D01*
X153236966Y-106341512D01*
X153366260Y-106236582D01*
X153433805Y-106230392D01*
X153611247Y-106329429D01*
X153611247Y-106329429D01*
G37*
X153611247Y-106329429D02*
X153687689Y-106497932D01*
X153634291Y-106672014D01*
X153633557Y-106672903D01*
X153469146Y-106783776D01*
X153288287Y-106795408D01*
X153161617Y-106705783D01*
X153152823Y-106686615D01*
X153151971Y-106514011D01*
X153157095Y-106503611D01*
X153380351Y-106503611D01*
X153395918Y-106613425D01*
X153424820Y-106614736D01*
X153445031Y-106501419D01*
X153431504Y-106452458D01*
X153393909Y-106420388D01*
X153380351Y-106503611D01*
X153157095Y-106503611D01*
X153236966Y-106341512D01*
X153366260Y-106236582D01*
X153433805Y-106230392D01*
X153611247Y-106329429D01*
G36*
X153938608Y-106690881D02*
X153950106Y-106715983D01*
X153909235Y-106793185D01*
X153839334Y-106807000D01*
X153733960Y-106764040D01*
X153728561Y-106715983D01*
X153815970Y-106628508D01*
X153839334Y-106624966D01*
X153938608Y-106690881D01*
X153938608Y-106690881D01*
G37*
X153938608Y-106690881D02*
X153950106Y-106715983D01*
X153909235Y-106793185D01*
X153839334Y-106807000D01*
X153733960Y-106764040D01*
X153728561Y-106715983D01*
X153815970Y-106628508D01*
X153839334Y-106624966D01*
X153938608Y-106690881D01*
G36*
X154353767Y-106253267D02*
X154493954Y-106377673D01*
X154544180Y-106565400D01*
X154541919Y-106587059D01*
X154451227Y-106745503D01*
X154267232Y-106782577D01*
X154156834Y-106751901D01*
X154070408Y-106639216D01*
X154057281Y-106459876D01*
X154065164Y-106437288D01*
X154220334Y-106437288D01*
X154262077Y-106561434D01*
X154345727Y-106609789D01*
X154376967Y-106593922D01*
X154365282Y-106506938D01*
X154320522Y-106449988D01*
X154235281Y-106402258D01*
X154220334Y-106437288D01*
X154065164Y-106437288D01*
X154113761Y-106298046D01*
X154179078Y-106244537D01*
X154353767Y-106253267D01*
X154353767Y-106253267D01*
G37*
X154353767Y-106253267D02*
X154493954Y-106377673D01*
X154544180Y-106565400D01*
X154541919Y-106587059D01*
X154451227Y-106745503D01*
X154267232Y-106782577D01*
X154156834Y-106751901D01*
X154070408Y-106639216D01*
X154057281Y-106459876D01*
X154065164Y-106437288D01*
X154220334Y-106437288D01*
X154262077Y-106561434D01*
X154345727Y-106609789D01*
X154376967Y-106593922D01*
X154365282Y-106506938D01*
X154320522Y-106449988D01*
X154235281Y-106402258D01*
X154220334Y-106437288D01*
X154065164Y-106437288D01*
X154113761Y-106298046D01*
X154179078Y-106244537D01*
X154353767Y-106253267D01*
G36*
X145895278Y-105851061D02*
X146172630Y-106101241D01*
X146315686Y-106359780D01*
X146403347Y-106579725D01*
X146420595Y-106686260D01*
X146367305Y-106720031D01*
X146314584Y-106722333D01*
X146217750Y-106648973D01*
X146148211Y-106472551D01*
X146148135Y-106472175D01*
X146014577Y-106207057D01*
X145756110Y-106017148D01*
X145409182Y-105926300D01*
X145307163Y-105921848D01*
X145052185Y-105952261D01*
X144853517Y-106070086D01*
X144729002Y-106196426D01*
X144576968Y-106393799D01*
X144490906Y-106558302D01*
X144483667Y-106596669D01*
X144437527Y-106708480D01*
X144399000Y-106722333D01*
X144325191Y-106653217D01*
X144314334Y-106587230D01*
X144392342Y-106293144D01*
X144600026Y-106034119D01*
X144897869Y-105838232D01*
X145246357Y-105733563D01*
X145518028Y-105731924D01*
X145895278Y-105851061D01*
X145895278Y-105851061D01*
G37*
X145895278Y-105851061D02*
X146172630Y-106101241D01*
X146315686Y-106359780D01*
X146403347Y-106579725D01*
X146420595Y-106686260D01*
X146367305Y-106720031D01*
X146314584Y-106722333D01*
X146217750Y-106648973D01*
X146148211Y-106472551D01*
X146148135Y-106472175D01*
X146014577Y-106207057D01*
X145756110Y-106017148D01*
X145409182Y-105926300D01*
X145307163Y-105921848D01*
X145052185Y-105952261D01*
X144853517Y-106070086D01*
X144729002Y-106196426D01*
X144576968Y-106393799D01*
X144490906Y-106558302D01*
X144483667Y-106596669D01*
X144437527Y-106708480D01*
X144399000Y-106722333D01*
X144325191Y-106653217D01*
X144314334Y-106587230D01*
X144392342Y-106293144D01*
X144600026Y-106034119D01*
X144897869Y-105838232D01*
X145246357Y-105733563D01*
X145518028Y-105731924D01*
X145895278Y-105851061D01*
G36*
X154299116Y-105827195D02*
X154586989Y-106031697D01*
X154734169Y-106226363D01*
X154838074Y-106435626D01*
X154883041Y-106613491D01*
X154853406Y-106713963D01*
X154822179Y-106722333D01*
X154740141Y-106653455D01*
X154728334Y-106588820D01*
X154671964Y-106447864D01*
X154531601Y-106261416D01*
X154480846Y-106207820D01*
X154174106Y-106006187D01*
X153833509Y-105947152D01*
X153500748Y-106021766D01*
X153217515Y-106221083D01*
X153031909Y-106518797D01*
X152938266Y-106676942D01*
X152849185Y-106719493D01*
X152807148Y-106643777D01*
X152824606Y-106531833D01*
X153012485Y-106158543D01*
X153316512Y-105892535D01*
X153499275Y-105810522D01*
X153919587Y-105743521D01*
X154299116Y-105827195D01*
X154299116Y-105827195D01*
G37*
X154299116Y-105827195D02*
X154586989Y-106031697D01*
X154734169Y-106226363D01*
X154838074Y-106435626D01*
X154883041Y-106613491D01*
X154853406Y-106713963D01*
X154822179Y-106722333D01*
X154740141Y-106653455D01*
X154728334Y-106588820D01*
X154671964Y-106447864D01*
X154531601Y-106261416D01*
X154480846Y-106207820D01*
X154174106Y-106006187D01*
X153833509Y-105947152D01*
X153500748Y-106021766D01*
X153217515Y-106221083D01*
X153031909Y-106518797D01*
X152938266Y-106676942D01*
X152849185Y-106719493D01*
X152807148Y-106643777D01*
X152824606Y-106531833D01*
X153012485Y-106158543D01*
X153316512Y-105892535D01*
X153499275Y-105810522D01*
X153919587Y-105743521D01*
X154299116Y-105827195D01*
G36*
X156419627Y-103455212D02*
X156421667Y-103465014D01*
X156384072Y-103574367D01*
X156286632Y-103786774D01*
X156152365Y-104057616D01*
X156004289Y-104342275D01*
X155865422Y-104596130D01*
X155758783Y-104774564D01*
X155718388Y-104828281D01*
X155598343Y-104871789D01*
X155357143Y-104910528D01*
X155029015Y-104943237D01*
X154648187Y-104968655D01*
X154248884Y-104985520D01*
X153865335Y-104992573D01*
X153531766Y-104988551D01*
X153282404Y-104972193D01*
X153151477Y-104942240D01*
X153140536Y-104923261D01*
X153217129Y-104874542D01*
X153420138Y-104835351D01*
X153763024Y-104804060D01*
X154259249Y-104779046D01*
X154368283Y-104775000D01*
X154799752Y-104756934D01*
X155167434Y-104736327D01*
X155439803Y-104715345D01*
X155585330Y-104696156D01*
X155600402Y-104690333D01*
X155654291Y-104599634D01*
X155762514Y-104396213D01*
X155904407Y-104119171D01*
X155947139Y-104034166D01*
X156099388Y-103749270D01*
X156232380Y-103534662D01*
X156323037Y-103426578D01*
X156338065Y-103420333D01*
X156419627Y-103455212D01*
X156419627Y-103455212D01*
G37*
X156419627Y-103455212D02*
X156421667Y-103465014D01*
X156384072Y-103574367D01*
X156286632Y-103786774D01*
X156152365Y-104057616D01*
X156004289Y-104342275D01*
X155865422Y-104596130D01*
X155758783Y-104774564D01*
X155718388Y-104828281D01*
X155598343Y-104871789D01*
X155357143Y-104910528D01*
X155029015Y-104943237D01*
X154648187Y-104968655D01*
X154248884Y-104985520D01*
X153865335Y-104992573D01*
X153531766Y-104988551D01*
X153282404Y-104972193D01*
X153151477Y-104942240D01*
X153140536Y-104923261D01*
X153217129Y-104874542D01*
X153420138Y-104835351D01*
X153763024Y-104804060D01*
X154259249Y-104779046D01*
X154368283Y-104775000D01*
X154799752Y-104756934D01*
X155167434Y-104736327D01*
X155439803Y-104715345D01*
X155585330Y-104696156D01*
X155600402Y-104690333D01*
X155654291Y-104599634D01*
X155762514Y-104396213D01*
X155904407Y-104119171D01*
X155947139Y-104034166D01*
X156099388Y-103749270D01*
X156232380Y-103534662D01*
X156323037Y-103426578D01*
X156338065Y-103420333D01*
X156419627Y-103455212D01*
G36*
X156140805Y-103290071D02*
X156150850Y-103343785D01*
X156054445Y-103403771D01*
X155817847Y-103476614D01*
X155468954Y-103554710D01*
X155190956Y-103605398D01*
X154749895Y-103685029D01*
X154311069Y-103773363D01*
X153937463Y-103857311D01*
X153765733Y-103901549D01*
X153482897Y-103989277D01*
X153311028Y-104081453D01*
X153196297Y-104221456D01*
X153086546Y-104448849D01*
X152967250Y-104678700D01*
X152854897Y-104827125D01*
X152802167Y-104857671D01*
X152703552Y-104837002D01*
X152696334Y-104824352D01*
X152743223Y-104650454D01*
X152860161Y-104406083D01*
X153011551Y-104153100D01*
X153161795Y-103953367D01*
X153237188Y-103884425D01*
X153406198Y-103812747D01*
X153708338Y-103722319D01*
X154109510Y-103621015D01*
X154575616Y-103516711D01*
X155072558Y-103417282D01*
X155566239Y-103330602D01*
X155774747Y-103298368D01*
X156026229Y-103271552D01*
X156140805Y-103290071D01*
X156140805Y-103290071D01*
G37*
X156140805Y-103290071D02*
X156150850Y-103343785D01*
X156054445Y-103403771D01*
X155817847Y-103476614D01*
X155468954Y-103554710D01*
X155190956Y-103605398D01*
X154749895Y-103685029D01*
X154311069Y-103773363D01*
X153937463Y-103857311D01*
X153765733Y-103901549D01*
X153482897Y-103989277D01*
X153311028Y-104081453D01*
X153196297Y-104221456D01*
X153086546Y-104448849D01*
X152967250Y-104678700D01*
X152854897Y-104827125D01*
X152802167Y-104857671D01*
X152703552Y-104837002D01*
X152696334Y-104824352D01*
X152743223Y-104650454D01*
X152860161Y-104406083D01*
X153011551Y-104153100D01*
X153161795Y-103953367D01*
X153237188Y-103884425D01*
X153406198Y-103812747D01*
X153708338Y-103722319D01*
X154109510Y-103621015D01*
X154575616Y-103516711D01*
X155072558Y-103417282D01*
X155566239Y-103330602D01*
X155774747Y-103298368D01*
X156026229Y-103271552D01*
X156140805Y-103290071D01*
D14*
X135830000Y-150435000D02*
X135830000Y-153095000D01*
X143510000Y-150435000D02*
X135830000Y-150435000D01*
X143510000Y-153095000D02*
X135830000Y-153095000D01*
X143510000Y-150435000D02*
X143510000Y-153095000D01*
X144780000Y-150435000D02*
X146110000Y-150435000D01*
X146110000Y-150435000D02*
X146110000Y-151765000D01*
D13*
X149980952Y-147008905D02*
X149599999Y-147008905D01*
X149561904Y-147389857D01*
X149599999Y-147351762D01*
X149676190Y-147313667D01*
X149866666Y-147313667D01*
X149942856Y-147351762D01*
X149980952Y-147389857D01*
X150019047Y-147466048D01*
X150019047Y-147656524D01*
X149980952Y-147732714D01*
X149942856Y-147770810D01*
X149866666Y-147808905D01*
X149676190Y-147808905D01*
X149599999Y-147770810D01*
X149561904Y-147732714D01*
X150247618Y-147008905D02*
X150514285Y-147808905D01*
X150780952Y-147008905D01*
X151809523Y-147008905D02*
X151961904Y-147008905D01*
X152038095Y-147047000D01*
X152114285Y-147123190D01*
X152152380Y-147275571D01*
X152152380Y-147542238D01*
X152114285Y-147694619D01*
X152038095Y-147770810D01*
X151961904Y-147808905D01*
X151809523Y-147808905D01*
X151733333Y-147770810D01*
X151657142Y-147694619D01*
X151619047Y-147542238D01*
X151619047Y-147275571D01*
X151657142Y-147123190D01*
X151733333Y-147047000D01*
X151809523Y-147008905D01*
X152838094Y-147275571D02*
X152838094Y-147808905D01*
X152495237Y-147275571D02*
X152495237Y-147694619D01*
X152533332Y-147770810D01*
X152609523Y-147808905D01*
X152723809Y-147808905D01*
X152799999Y-147770810D01*
X152838094Y-147732714D01*
X153104761Y-147275571D02*
X153409523Y-147275571D01*
X153219047Y-147008905D02*
X153219047Y-147694619D01*
X153257142Y-147770810D01*
X153333333Y-147808905D01*
X153409523Y-147808905D01*
X153676190Y-147275571D02*
X153676190Y-148075571D01*
X153676190Y-147313667D02*
X153752381Y-147275571D01*
X153904762Y-147275571D01*
X153980952Y-147313667D01*
X154019047Y-147351762D01*
X154057143Y-147427952D01*
X154057143Y-147656524D01*
X154019047Y-147732714D01*
X153980952Y-147770810D01*
X153904762Y-147808905D01*
X153752381Y-147808905D01*
X153676190Y-147770810D01*
X154742857Y-147275571D02*
X154742857Y-147808905D01*
X154400000Y-147275571D02*
X154400000Y-147694619D01*
X154438095Y-147770810D01*
X154514286Y-147808905D01*
X154628572Y-147808905D01*
X154704762Y-147770810D01*
X154742857Y-147732714D01*
X155009524Y-147275571D02*
X155314286Y-147275571D01*
X155123810Y-147008905D02*
X155123810Y-147694619D01*
X155161905Y-147770810D01*
X155238096Y-147808905D01*
X155314286Y-147808905D01*
X139296189Y-108021381D02*
X139296189Y-107021381D01*
X139629523Y-107735667D01*
X139962856Y-107021381D01*
X139962856Y-108021381D01*
X140819999Y-107973762D02*
X140724761Y-108021381D01*
X140534284Y-108021381D01*
X140439046Y-107973762D01*
X140391427Y-107878524D01*
X140391427Y-107497571D01*
X140439046Y-107402333D01*
X140534284Y-107354714D01*
X140724761Y-107354714D01*
X140819999Y-107402333D01*
X140867618Y-107497571D01*
X140867618Y-107592810D01*
X140391427Y-107688048D01*
X141153332Y-107354714D02*
X141534284Y-107354714D01*
X141296189Y-107021381D02*
X141296189Y-107878524D01*
X141343808Y-107973762D01*
X141439046Y-108021381D01*
X141534284Y-108021381D01*
X141867618Y-108021381D02*
X141867618Y-107354714D01*
X141867618Y-107545190D02*
X141915237Y-107449952D01*
X141962856Y-107402333D01*
X142058094Y-107354714D01*
X142153333Y-107354714D01*
X142629523Y-108021381D02*
X142534285Y-107973762D01*
X142486666Y-107926143D01*
X142439047Y-107830905D01*
X142439047Y-107545190D01*
X142486666Y-107449952D01*
X142534285Y-107402333D01*
X142629523Y-107354714D01*
X142772381Y-107354714D01*
X142867619Y-107402333D01*
X142915238Y-107449952D01*
X142962857Y-107545190D01*
X142962857Y-107830905D01*
X142915238Y-107926143D01*
X142867619Y-107973762D01*
X142772381Y-108021381D01*
X142629523Y-108021381D01*
X143391428Y-107354714D02*
X143391428Y-108354714D01*
X143391428Y-107402333D02*
X143486666Y-107354714D01*
X143677143Y-107354714D01*
X143772381Y-107402333D01*
X143820000Y-107449952D01*
X143867619Y-107545190D01*
X143867619Y-107830905D01*
X143820000Y-107926143D01*
X143772381Y-107973762D01*
X143677143Y-108021381D01*
X143486666Y-108021381D01*
X143391428Y-107973762D01*
X144439047Y-108021381D02*
X144343809Y-107973762D01*
X144296190Y-107926143D01*
X144248571Y-107830905D01*
X144248571Y-107545190D01*
X144296190Y-107449952D01*
X144343809Y-107402333D01*
X144439047Y-107354714D01*
X144581905Y-107354714D01*
X144677143Y-107402333D01*
X144724762Y-107449952D01*
X144772381Y-107545190D01*
X144772381Y-107830905D01*
X144724762Y-107926143D01*
X144677143Y-107973762D01*
X144581905Y-108021381D01*
X144439047Y-108021381D01*
X145343809Y-108021381D02*
X145248571Y-107973762D01*
X145200952Y-107878524D01*
X145200952Y-107021381D01*
X145724762Y-108021381D02*
X145724762Y-107354714D01*
X145724762Y-107021381D02*
X145677143Y-107069000D01*
X145724762Y-107116619D01*
X145772381Y-107069000D01*
X145724762Y-107021381D01*
X145724762Y-107116619D01*
X146629524Y-108021381D02*
X146629524Y-107497571D01*
X146581905Y-107402333D01*
X146486667Y-107354714D01*
X146296190Y-107354714D01*
X146200952Y-107402333D01*
X146629524Y-107973762D02*
X146534286Y-108021381D01*
X146296190Y-108021381D01*
X146200952Y-107973762D01*
X146153333Y-107878524D01*
X146153333Y-107783286D01*
X146200952Y-107688048D01*
X146296190Y-107640429D01*
X146534286Y-107640429D01*
X146629524Y-107592810D01*
X147867619Y-108021381D02*
X147867619Y-107021381D01*
X148200953Y-107735667D01*
X148534286Y-107021381D01*
X148534286Y-108021381D01*
X149153333Y-108021381D02*
X149058095Y-107973762D01*
X149010476Y-107926143D01*
X148962857Y-107830905D01*
X148962857Y-107545190D01*
X149010476Y-107449952D01*
X149058095Y-107402333D01*
X149153333Y-107354714D01*
X149296191Y-107354714D01*
X149391429Y-107402333D01*
X149439048Y-107449952D01*
X149486667Y-107545190D01*
X149486667Y-107830905D01*
X149439048Y-107926143D01*
X149391429Y-107973762D01*
X149296191Y-108021381D01*
X149153333Y-108021381D01*
X149772381Y-107354714D02*
X150153333Y-107354714D01*
X149915238Y-107021381D02*
X149915238Y-107878524D01*
X149962857Y-107973762D01*
X150058095Y-108021381D01*
X150153333Y-108021381D01*
X150629524Y-108021381D02*
X150534286Y-107973762D01*
X150486667Y-107926143D01*
X150439048Y-107830905D01*
X150439048Y-107545190D01*
X150486667Y-107449952D01*
X150534286Y-107402333D01*
X150629524Y-107354714D01*
X150772382Y-107354714D01*
X150867620Y-107402333D01*
X150915239Y-107449952D01*
X150962858Y-107545190D01*
X150962858Y-107830905D01*
X150915239Y-107926143D01*
X150867620Y-107973762D01*
X150772382Y-108021381D01*
X150629524Y-108021381D01*
X151391429Y-108021381D02*
X151391429Y-107354714D01*
X151391429Y-107545190D02*
X151439048Y-107449952D01*
X151486667Y-107402333D01*
X151581905Y-107354714D01*
X151677144Y-107354714D01*
X151962858Y-107973762D02*
X152058096Y-108021381D01*
X152248572Y-108021381D01*
X152343811Y-107973762D01*
X152391430Y-107878524D01*
X152391430Y-107830905D01*
X152343811Y-107735667D01*
X152248572Y-107688048D01*
X152105715Y-107688048D01*
X152010477Y-107640429D01*
X151962858Y-107545190D01*
X151962858Y-107497571D01*
X152010477Y-107402333D01*
X152105715Y-107354714D01*
X152248572Y-107354714D01*
X152343811Y-107402333D01*
X152820001Y-107354714D02*
X152820001Y-108354714D01*
X152820001Y-107402333D02*
X152915239Y-107354714D01*
X153105716Y-107354714D01*
X153200954Y-107402333D01*
X153248573Y-107449952D01*
X153296192Y-107545190D01*
X153296192Y-107830905D01*
X153248573Y-107926143D01*
X153200954Y-107973762D01*
X153105716Y-108021381D01*
X152915239Y-108021381D01*
X152820001Y-107973762D01*
X153867620Y-108021381D02*
X153772382Y-107973762D01*
X153724763Y-107926143D01*
X153677144Y-107830905D01*
X153677144Y-107545190D01*
X153724763Y-107449952D01*
X153772382Y-107402333D01*
X153867620Y-107354714D01*
X154010478Y-107354714D01*
X154105716Y-107402333D01*
X154153335Y-107449952D01*
X154200954Y-107545190D01*
X154200954Y-107830905D01*
X154153335Y-107926143D01*
X154105716Y-107973762D01*
X154010478Y-108021381D01*
X153867620Y-108021381D01*
X154629525Y-108021381D02*
X154629525Y-107354714D01*
X154629525Y-107545190D02*
X154677144Y-107449952D01*
X154724763Y-107402333D01*
X154820001Y-107354714D01*
X154915240Y-107354714D01*
X155105716Y-107354714D02*
X155486668Y-107354714D01*
X155248573Y-107021381D02*
X155248573Y-107878524D01*
X155296192Y-107973762D01*
X155391430Y-108021381D01*
X155486668Y-108021381D01*
X123015714Y-149788571D02*
X123158571Y-149836190D01*
X123206190Y-149883810D01*
X123253809Y-149979048D01*
X123253809Y-150121905D01*
X123206190Y-150217143D01*
X123158571Y-150264762D01*
X123063333Y-150312381D01*
X122682380Y-150312381D01*
X122682380Y-149312381D01*
X123015714Y-149312381D01*
X123110952Y-149360000D01*
X123158571Y-149407619D01*
X123206190Y-149502857D01*
X123206190Y-149598095D01*
X123158571Y-149693333D01*
X123110952Y-149740952D01*
X123015714Y-149788571D01*
X122682380Y-149788571D01*
X123825237Y-150312381D02*
X123729999Y-150264762D01*
X123682380Y-150169524D01*
X123682380Y-149312381D01*
X124634762Y-149645714D02*
X124634762Y-150312381D01*
X124206190Y-149645714D02*
X124206190Y-150169524D01*
X124253809Y-150264762D01*
X124349047Y-150312381D01*
X124491905Y-150312381D01*
X124587143Y-150264762D01*
X124634762Y-150217143D01*
X125491905Y-150264762D02*
X125396667Y-150312381D01*
X125206190Y-150312381D01*
X125110952Y-150264762D01*
X125063333Y-150169524D01*
X125063333Y-149788571D01*
X125110952Y-149693333D01*
X125206190Y-149645714D01*
X125396667Y-149645714D01*
X125491905Y-149693333D01*
X125539524Y-149788571D01*
X125539524Y-149883810D01*
X125063333Y-149979048D01*
X126730000Y-150312381D02*
X126730000Y-149312381D01*
X127110953Y-149312381D01*
X127206191Y-149360000D01*
X127253810Y-149407619D01*
X127301429Y-149502857D01*
X127301429Y-149645714D01*
X127253810Y-149740952D01*
X127206191Y-149788571D01*
X127110953Y-149836190D01*
X126730000Y-149836190D01*
X127730000Y-150312381D02*
X127730000Y-149645714D01*
X127730000Y-149312381D02*
X127682381Y-149360000D01*
X127730000Y-149407619D01*
X127777619Y-149360000D01*
X127730000Y-149312381D01*
X127730000Y-149407619D01*
X128349047Y-150312381D02*
X128253809Y-150264762D01*
X128206190Y-150169524D01*
X128206190Y-149312381D01*
X128872857Y-150312381D02*
X128777619Y-150264762D01*
X128730000Y-150169524D01*
X128730000Y-149312381D01*
X140803334Y-110362381D02*
X140470000Y-109886190D01*
X140231905Y-110362381D02*
X140231905Y-109362381D01*
X140612858Y-109362381D01*
X140708096Y-109410000D01*
X140755715Y-109457619D01*
X140803334Y-109552857D01*
X140803334Y-109695714D01*
X140755715Y-109790952D01*
X140708096Y-109838571D01*
X140612858Y-109886190D01*
X140231905Y-109886190D01*
X141755715Y-110362381D02*
X141184286Y-110362381D01*
X141470000Y-110362381D02*
X141470000Y-109362381D01*
X141374762Y-109505238D01*
X141279524Y-109600476D01*
X141184286Y-109648095D01*
X140803334Y-114172381D02*
X140470000Y-113696190D01*
X140231905Y-114172381D02*
X140231905Y-113172381D01*
X140612858Y-113172381D01*
X140708096Y-113220000D01*
X140755715Y-113267619D01*
X140803334Y-113362857D01*
X140803334Y-113505714D01*
X140755715Y-113600952D01*
X140708096Y-113648571D01*
X140612858Y-113696190D01*
X140231905Y-113696190D01*
X141184286Y-113267619D02*
X141231905Y-113220000D01*
X141327143Y-113172381D01*
X141565239Y-113172381D01*
X141660477Y-113220000D01*
X141708096Y-113267619D01*
X141755715Y-113362857D01*
X141755715Y-113458095D01*
X141708096Y-113600952D01*
X141136667Y-114172381D01*
X141755715Y-114172381D01*
X140803334Y-117982381D02*
X140470000Y-117506190D01*
X140231905Y-117982381D02*
X140231905Y-116982381D01*
X140612858Y-116982381D01*
X140708096Y-117030000D01*
X140755715Y-117077619D01*
X140803334Y-117172857D01*
X140803334Y-117315714D01*
X140755715Y-117410952D01*
X140708096Y-117458571D01*
X140612858Y-117506190D01*
X140231905Y-117506190D01*
X141136667Y-116982381D02*
X141755715Y-116982381D01*
X141422381Y-117363333D01*
X141565239Y-117363333D01*
X141660477Y-117410952D01*
X141708096Y-117458571D01*
X141755715Y-117553810D01*
X141755715Y-117791905D01*
X141708096Y-117887143D01*
X141660477Y-117934762D01*
X141565239Y-117982381D01*
X141279524Y-117982381D01*
X141184286Y-117934762D01*
X141136667Y-117887143D01*
X140803334Y-121792381D02*
X140470000Y-121316190D01*
X140231905Y-121792381D02*
X140231905Y-120792381D01*
X140612858Y-120792381D01*
X140708096Y-120840000D01*
X140755715Y-120887619D01*
X140803334Y-120982857D01*
X140803334Y-121125714D01*
X140755715Y-121220952D01*
X140708096Y-121268571D01*
X140612858Y-121316190D01*
X140231905Y-121316190D01*
X141660477Y-121125714D02*
X141660477Y-121792381D01*
X141422381Y-120744762D02*
X141184286Y-121459048D01*
X141803334Y-121459048D01*
X140803334Y-125602381D02*
X140470000Y-125126190D01*
X140231905Y-125602381D02*
X140231905Y-124602381D01*
X140612858Y-124602381D01*
X140708096Y-124650000D01*
X140755715Y-124697619D01*
X140803334Y-124792857D01*
X140803334Y-124935714D01*
X140755715Y-125030952D01*
X140708096Y-125078571D01*
X140612858Y-125126190D01*
X140231905Y-125126190D01*
X141708096Y-124602381D02*
X141231905Y-124602381D01*
X141184286Y-125078571D01*
X141231905Y-125030952D01*
X141327143Y-124983333D01*
X141565239Y-124983333D01*
X141660477Y-125030952D01*
X141708096Y-125078571D01*
X141755715Y-125173810D01*
X141755715Y-125411905D01*
X141708096Y-125507143D01*
X141660477Y-125554762D01*
X141565239Y-125602381D01*
X141327143Y-125602381D01*
X141231905Y-125554762D01*
X141184286Y-125507143D01*
X140803334Y-129412381D02*
X140470000Y-128936190D01*
X140231905Y-129412381D02*
X140231905Y-128412381D01*
X140612858Y-128412381D01*
X140708096Y-128460000D01*
X140755715Y-128507619D01*
X140803334Y-128602857D01*
X140803334Y-128745714D01*
X140755715Y-128840952D01*
X140708096Y-128888571D01*
X140612858Y-128936190D01*
X140231905Y-128936190D01*
X141660477Y-128412381D02*
X141470000Y-128412381D01*
X141374762Y-128460000D01*
X141327143Y-128507619D01*
X141231905Y-128650476D01*
X141184286Y-128840952D01*
X141184286Y-129221905D01*
X141231905Y-129317143D01*
X141279524Y-129364762D01*
X141374762Y-129412381D01*
X141565239Y-129412381D01*
X141660477Y-129364762D01*
X141708096Y-129317143D01*
X141755715Y-129221905D01*
X141755715Y-128983810D01*
X141708096Y-128888571D01*
X141660477Y-128840952D01*
X141565239Y-128793333D01*
X141374762Y-128793333D01*
X141279524Y-128840952D01*
X141231905Y-128888571D01*
X141184286Y-128983810D01*
X140803334Y-133222381D02*
X140470000Y-132746190D01*
X140231905Y-133222381D02*
X140231905Y-132222381D01*
X140612858Y-132222381D01*
X140708096Y-132270000D01*
X140755715Y-132317619D01*
X140803334Y-132412857D01*
X140803334Y-132555714D01*
X140755715Y-132650952D01*
X140708096Y-132698571D01*
X140612858Y-132746190D01*
X140231905Y-132746190D01*
X141136667Y-132222381D02*
X141803334Y-132222381D01*
X141374762Y-133222381D01*
X140803334Y-137032381D02*
X140470000Y-136556190D01*
X140231905Y-137032381D02*
X140231905Y-136032381D01*
X140612858Y-136032381D01*
X140708096Y-136080000D01*
X140755715Y-136127619D01*
X140803334Y-136222857D01*
X140803334Y-136365714D01*
X140755715Y-136460952D01*
X140708096Y-136508571D01*
X140612858Y-136556190D01*
X140231905Y-136556190D01*
X141374762Y-136460952D02*
X141279524Y-136413333D01*
X141231905Y-136365714D01*
X141184286Y-136270476D01*
X141184286Y-136222857D01*
X141231905Y-136127619D01*
X141279524Y-136080000D01*
X141374762Y-136032381D01*
X141565239Y-136032381D01*
X141660477Y-136080000D01*
X141708096Y-136127619D01*
X141755715Y-136222857D01*
X141755715Y-136270476D01*
X141708096Y-136365714D01*
X141660477Y-136413333D01*
X141565239Y-136460952D01*
X141374762Y-136460952D01*
X141279524Y-136508571D01*
X141231905Y-136556190D01*
X141184286Y-136651429D01*
X141184286Y-136841905D01*
X141231905Y-136937143D01*
X141279524Y-136984762D01*
X141374762Y-137032381D01*
X141565239Y-137032381D01*
X141660477Y-136984762D01*
X141708096Y-136937143D01*
X141755715Y-136841905D01*
X141755715Y-136651429D01*
X141708096Y-136556190D01*
X141660477Y-136508571D01*
X141565239Y-136460952D01*
X140803334Y-140842381D02*
X140470000Y-140366190D01*
X140231905Y-140842381D02*
X140231905Y-139842381D01*
X140612858Y-139842381D01*
X140708096Y-139890000D01*
X140755715Y-139937619D01*
X140803334Y-140032857D01*
X140803334Y-140175714D01*
X140755715Y-140270952D01*
X140708096Y-140318571D01*
X140612858Y-140366190D01*
X140231905Y-140366190D01*
X141279524Y-140842381D02*
X141470000Y-140842381D01*
X141565239Y-140794762D01*
X141612858Y-140747143D01*
X141708096Y-140604286D01*
X141755715Y-140413810D01*
X141755715Y-140032857D01*
X141708096Y-139937619D01*
X141660477Y-139890000D01*
X141565239Y-139842381D01*
X141374762Y-139842381D01*
X141279524Y-139890000D01*
X141231905Y-139937619D01*
X141184286Y-140032857D01*
X141184286Y-140270952D01*
X141231905Y-140366190D01*
X141279524Y-140413810D01*
X141374762Y-140461429D01*
X141565239Y-140461429D01*
X141660477Y-140413810D01*
X141708096Y-140366190D01*
X141755715Y-140270952D01*
X140327143Y-144652381D02*
X139993809Y-144176190D01*
X139755714Y-144652381D02*
X139755714Y-143652381D01*
X140136667Y-143652381D01*
X140231905Y-143700000D01*
X140279524Y-143747619D01*
X140327143Y-143842857D01*
X140327143Y-143985714D01*
X140279524Y-144080952D01*
X140231905Y-144128571D01*
X140136667Y-144176190D01*
X139755714Y-144176190D01*
X141279524Y-144652381D02*
X140708095Y-144652381D01*
X140993809Y-144652381D02*
X140993809Y-143652381D01*
X140898571Y-143795238D01*
X140803333Y-143890476D01*
X140708095Y-143938095D01*
X141898571Y-143652381D02*
X141993810Y-143652381D01*
X142089048Y-143700000D01*
X142136667Y-143747619D01*
X142184286Y-143842857D01*
X142231905Y-144033333D01*
X142231905Y-144271429D01*
X142184286Y-144461905D01*
X142136667Y-144557143D01*
X142089048Y-144604762D01*
X141993810Y-144652381D01*
X141898571Y-144652381D01*
X141803333Y-144604762D01*
X141755714Y-144557143D01*
X141708095Y-144461905D01*
X141660476Y-144271429D01*
X141660476Y-144033333D01*
X141708095Y-143842857D01*
X141755714Y-143747619D01*
X141803333Y-143700000D01*
X141898571Y-143652381D01*
X149217143Y-112157381D02*
X148883809Y-111681190D01*
X148645714Y-112157381D02*
X148645714Y-111157381D01*
X149026667Y-111157381D01*
X149121905Y-111205000D01*
X149169524Y-111252619D01*
X149217143Y-111347857D01*
X149217143Y-111490714D01*
X149169524Y-111585952D01*
X149121905Y-111633571D01*
X149026667Y-111681190D01*
X148645714Y-111681190D01*
X150169524Y-112157381D02*
X149598095Y-112157381D01*
X149883809Y-112157381D02*
X149883809Y-111157381D01*
X149788571Y-111300238D01*
X149693333Y-111395476D01*
X149598095Y-111443095D01*
X151121905Y-112157381D02*
X150550476Y-112157381D01*
X150836190Y-112157381D02*
X150836190Y-111157381D01*
X150740952Y-111300238D01*
X150645714Y-111395476D01*
X150550476Y-111443095D01*
X149217143Y-115967381D02*
X148883809Y-115491190D01*
X148645714Y-115967381D02*
X148645714Y-114967381D01*
X149026667Y-114967381D01*
X149121905Y-115015000D01*
X149169524Y-115062619D01*
X149217143Y-115157857D01*
X149217143Y-115300714D01*
X149169524Y-115395952D01*
X149121905Y-115443571D01*
X149026667Y-115491190D01*
X148645714Y-115491190D01*
X150169524Y-115967381D02*
X149598095Y-115967381D01*
X149883809Y-115967381D02*
X149883809Y-114967381D01*
X149788571Y-115110238D01*
X149693333Y-115205476D01*
X149598095Y-115253095D01*
X150550476Y-115062619D02*
X150598095Y-115015000D01*
X150693333Y-114967381D01*
X150931429Y-114967381D01*
X151026667Y-115015000D01*
X151074286Y-115062619D01*
X151121905Y-115157857D01*
X151121905Y-115253095D01*
X151074286Y-115395952D01*
X150502857Y-115967381D01*
X151121905Y-115967381D01*
X149217143Y-119777381D02*
X148883809Y-119301190D01*
X148645714Y-119777381D02*
X148645714Y-118777381D01*
X149026667Y-118777381D01*
X149121905Y-118825000D01*
X149169524Y-118872619D01*
X149217143Y-118967857D01*
X149217143Y-119110714D01*
X149169524Y-119205952D01*
X149121905Y-119253571D01*
X149026667Y-119301190D01*
X148645714Y-119301190D01*
X150169524Y-119777381D02*
X149598095Y-119777381D01*
X149883809Y-119777381D02*
X149883809Y-118777381D01*
X149788571Y-118920238D01*
X149693333Y-119015476D01*
X149598095Y-119063095D01*
X150502857Y-118777381D02*
X151121905Y-118777381D01*
X150788571Y-119158333D01*
X150931429Y-119158333D01*
X151026667Y-119205952D01*
X151074286Y-119253571D01*
X151121905Y-119348810D01*
X151121905Y-119586905D01*
X151074286Y-119682143D01*
X151026667Y-119729762D01*
X150931429Y-119777381D01*
X150645714Y-119777381D01*
X150550476Y-119729762D01*
X150502857Y-119682143D01*
X149217143Y-123587381D02*
X148883809Y-123111190D01*
X148645714Y-123587381D02*
X148645714Y-122587381D01*
X149026667Y-122587381D01*
X149121905Y-122635000D01*
X149169524Y-122682619D01*
X149217143Y-122777857D01*
X149217143Y-122920714D01*
X149169524Y-123015952D01*
X149121905Y-123063571D01*
X149026667Y-123111190D01*
X148645714Y-123111190D01*
X150169524Y-123587381D02*
X149598095Y-123587381D01*
X149883809Y-123587381D02*
X149883809Y-122587381D01*
X149788571Y-122730238D01*
X149693333Y-122825476D01*
X149598095Y-122873095D01*
X151026667Y-122920714D02*
X151026667Y-123587381D01*
X150788571Y-122539762D02*
X150550476Y-123254048D01*
X151169524Y-123254048D01*
X149217143Y-127397381D02*
X148883809Y-126921190D01*
X148645714Y-127397381D02*
X148645714Y-126397381D01*
X149026667Y-126397381D01*
X149121905Y-126445000D01*
X149169524Y-126492619D01*
X149217143Y-126587857D01*
X149217143Y-126730714D01*
X149169524Y-126825952D01*
X149121905Y-126873571D01*
X149026667Y-126921190D01*
X148645714Y-126921190D01*
X150169524Y-127397381D02*
X149598095Y-127397381D01*
X149883809Y-127397381D02*
X149883809Y-126397381D01*
X149788571Y-126540238D01*
X149693333Y-126635476D01*
X149598095Y-126683095D01*
X151074286Y-126397381D02*
X150598095Y-126397381D01*
X150550476Y-126873571D01*
X150598095Y-126825952D01*
X150693333Y-126778333D01*
X150931429Y-126778333D01*
X151026667Y-126825952D01*
X151074286Y-126873571D01*
X151121905Y-126968810D01*
X151121905Y-127206905D01*
X151074286Y-127302143D01*
X151026667Y-127349762D01*
X150931429Y-127397381D01*
X150693333Y-127397381D01*
X150598095Y-127349762D01*
X150550476Y-127302143D01*
X149217143Y-131207381D02*
X148883809Y-130731190D01*
X148645714Y-131207381D02*
X148645714Y-130207381D01*
X149026667Y-130207381D01*
X149121905Y-130255000D01*
X149169524Y-130302619D01*
X149217143Y-130397857D01*
X149217143Y-130540714D01*
X149169524Y-130635952D01*
X149121905Y-130683571D01*
X149026667Y-130731190D01*
X148645714Y-130731190D01*
X150169524Y-131207381D02*
X149598095Y-131207381D01*
X149883809Y-131207381D02*
X149883809Y-130207381D01*
X149788571Y-130350238D01*
X149693333Y-130445476D01*
X149598095Y-130493095D01*
X151026667Y-130207381D02*
X150836190Y-130207381D01*
X150740952Y-130255000D01*
X150693333Y-130302619D01*
X150598095Y-130445476D01*
X150550476Y-130635952D01*
X150550476Y-131016905D01*
X150598095Y-131112143D01*
X150645714Y-131159762D01*
X150740952Y-131207381D01*
X150931429Y-131207381D01*
X151026667Y-131159762D01*
X151074286Y-131112143D01*
X151121905Y-131016905D01*
X151121905Y-130778810D01*
X151074286Y-130683571D01*
X151026667Y-130635952D01*
X150931429Y-130588333D01*
X150740952Y-130588333D01*
X150645714Y-130635952D01*
X150598095Y-130683571D01*
X150550476Y-130778810D01*
X149217143Y-135017381D02*
X148883809Y-134541190D01*
X148645714Y-135017381D02*
X148645714Y-134017381D01*
X149026667Y-134017381D01*
X149121905Y-134065000D01*
X149169524Y-134112619D01*
X149217143Y-134207857D01*
X149217143Y-134350714D01*
X149169524Y-134445952D01*
X149121905Y-134493571D01*
X149026667Y-134541190D01*
X148645714Y-134541190D01*
X150169524Y-135017381D02*
X149598095Y-135017381D01*
X149883809Y-135017381D02*
X149883809Y-134017381D01*
X149788571Y-134160238D01*
X149693333Y-134255476D01*
X149598095Y-134303095D01*
X150502857Y-134017381D02*
X151169524Y-134017381D01*
X150740952Y-135017381D01*
X149217143Y-138827381D02*
X148883809Y-138351190D01*
X148645714Y-138827381D02*
X148645714Y-137827381D01*
X149026667Y-137827381D01*
X149121905Y-137875000D01*
X149169524Y-137922619D01*
X149217143Y-138017857D01*
X149217143Y-138160714D01*
X149169524Y-138255952D01*
X149121905Y-138303571D01*
X149026667Y-138351190D01*
X148645714Y-138351190D01*
X150169524Y-138827381D02*
X149598095Y-138827381D01*
X149883809Y-138827381D02*
X149883809Y-137827381D01*
X149788571Y-137970238D01*
X149693333Y-138065476D01*
X149598095Y-138113095D01*
X150740952Y-138255952D02*
X150645714Y-138208333D01*
X150598095Y-138160714D01*
X150550476Y-138065476D01*
X150550476Y-138017857D01*
X150598095Y-137922619D01*
X150645714Y-137875000D01*
X150740952Y-137827381D01*
X150931429Y-137827381D01*
X151026667Y-137875000D01*
X151074286Y-137922619D01*
X151121905Y-138017857D01*
X151121905Y-138065476D01*
X151074286Y-138160714D01*
X151026667Y-138208333D01*
X150931429Y-138255952D01*
X150740952Y-138255952D01*
X150645714Y-138303571D01*
X150598095Y-138351190D01*
X150550476Y-138446429D01*
X150550476Y-138636905D01*
X150598095Y-138732143D01*
X150645714Y-138779762D01*
X150740952Y-138827381D01*
X150931429Y-138827381D01*
X151026667Y-138779762D01*
X151074286Y-138732143D01*
X151121905Y-138636905D01*
X151121905Y-138446429D01*
X151074286Y-138351190D01*
X151026667Y-138303571D01*
X150931429Y-138255952D01*
X149217143Y-142637381D02*
X148883809Y-142161190D01*
X148645714Y-142637381D02*
X148645714Y-141637381D01*
X149026667Y-141637381D01*
X149121905Y-141685000D01*
X149169524Y-141732619D01*
X149217143Y-141827857D01*
X149217143Y-141970714D01*
X149169524Y-142065952D01*
X149121905Y-142113571D01*
X149026667Y-142161190D01*
X148645714Y-142161190D01*
X150169524Y-142637381D02*
X149598095Y-142637381D01*
X149883809Y-142637381D02*
X149883809Y-141637381D01*
X149788571Y-141780238D01*
X149693333Y-141875476D01*
X149598095Y-141923095D01*
X150645714Y-142637381D02*
X150836190Y-142637381D01*
X150931429Y-142589762D01*
X150979048Y-142542143D01*
X151074286Y-142399286D01*
X151121905Y-142208810D01*
X151121905Y-141827857D01*
X151074286Y-141732619D01*
X151026667Y-141685000D01*
X150931429Y-141637381D01*
X150740952Y-141637381D01*
X150645714Y-141685000D01*
X150598095Y-141732619D01*
X150550476Y-141827857D01*
X150550476Y-142065952D01*
X150598095Y-142161190D01*
X150645714Y-142208810D01*
X150740952Y-142256429D01*
X150931429Y-142256429D01*
X151026667Y-142208810D01*
X151074286Y-142161190D01*
X151121905Y-142065952D01*
X149217143Y-146447381D02*
X148883809Y-145971190D01*
X148645714Y-146447381D02*
X148645714Y-145447381D01*
X149026667Y-145447381D01*
X149121905Y-145495000D01*
X149169524Y-145542619D01*
X149217143Y-145637857D01*
X149217143Y-145780714D01*
X149169524Y-145875952D01*
X149121905Y-145923571D01*
X149026667Y-145971190D01*
X148645714Y-145971190D01*
X149598095Y-145542619D02*
X149645714Y-145495000D01*
X149740952Y-145447381D01*
X149979048Y-145447381D01*
X150074286Y-145495000D01*
X150121905Y-145542619D01*
X150169524Y-145637857D01*
X150169524Y-145733095D01*
X150121905Y-145875952D01*
X149550476Y-146447381D01*
X150169524Y-146447381D01*
X150788571Y-145447381D02*
X150883810Y-145447381D01*
X150979048Y-145495000D01*
X151026667Y-145542619D01*
X151074286Y-145637857D01*
X151121905Y-145828333D01*
X151121905Y-146066429D01*
X151074286Y-146256905D01*
X151026667Y-146352143D01*
X150979048Y-146399762D01*
X150883810Y-146447381D01*
X150788571Y-146447381D01*
X150693333Y-146399762D01*
X150645714Y-146352143D01*
X150598095Y-146256905D01*
X150550476Y-146066429D01*
X150550476Y-145828333D01*
X150598095Y-145637857D01*
X150645714Y-145542619D01*
X150693333Y-145495000D01*
X150788571Y-145447381D01*
X116094381Y-129674857D02*
X115618190Y-130008191D01*
X116094381Y-130246286D02*
X115094381Y-130246286D01*
X115094381Y-129865333D01*
X115142000Y-129770095D01*
X115189619Y-129722476D01*
X115284857Y-129674857D01*
X115427714Y-129674857D01*
X115522952Y-129722476D01*
X115570571Y-129770095D01*
X115618190Y-129865333D01*
X115618190Y-130246286D01*
X115189619Y-129293905D02*
X115142000Y-129246286D01*
X115094381Y-129151048D01*
X115094381Y-128912952D01*
X115142000Y-128817714D01*
X115189619Y-128770095D01*
X115284857Y-128722476D01*
X115380095Y-128722476D01*
X115522952Y-128770095D01*
X116094381Y-129341524D01*
X116094381Y-128722476D01*
X116094381Y-127770095D02*
X116094381Y-128341524D01*
X116094381Y-128055810D02*
X115094381Y-128055810D01*
X115237238Y-128151048D01*
X115332476Y-128246286D01*
X115380095Y-128341524D01*
D16*
X137833476Y-148824905D02*
X137833476Y-148024905D01*
X138176333Y-148101095D02*
X138214428Y-148063000D01*
X138290619Y-148024905D01*
X138481095Y-148024905D01*
X138557285Y-148063000D01*
X138595381Y-148101095D01*
X138633476Y-148177286D01*
X138633476Y-148253476D01*
X138595381Y-148367762D01*
X138138238Y-148824905D01*
X138633476Y-148824905D01*
X139433476Y-148748714D02*
X139395381Y-148786810D01*
X139281095Y-148824905D01*
X139204905Y-148824905D01*
X139090619Y-148786810D01*
X139014428Y-148710619D01*
X138976333Y-148634429D01*
X138938238Y-148482048D01*
X138938238Y-148367762D01*
X138976333Y-148215381D01*
X139014428Y-148139190D01*
X139090619Y-148063000D01*
X139204905Y-148024905D01*
X139281095Y-148024905D01*
X139395381Y-148063000D01*
X139433476Y-148101095D01*
X140423952Y-148824905D02*
X140385857Y-148824905D01*
X140309667Y-148786810D01*
X140195381Y-148672524D01*
X140004905Y-148443952D01*
X139928714Y-148329667D01*
X139890619Y-148215381D01*
X139890619Y-148139190D01*
X139928714Y-148063000D01*
X140004905Y-148024905D01*
X140043000Y-148024905D01*
X140119190Y-148063000D01*
X140157286Y-148139190D01*
X140157286Y-148177286D01*
X140119190Y-148253476D01*
X140081095Y-148291571D01*
X139852524Y-148443952D01*
X139814428Y-148482048D01*
X139776333Y-148558238D01*
X139776333Y-148672524D01*
X139814428Y-148748714D01*
X139852524Y-148786810D01*
X139928714Y-148824905D01*
X140043000Y-148824905D01*
X140119190Y-148786810D01*
X140157286Y-148748714D01*
X140271571Y-148596333D01*
X140309667Y-148482048D01*
X140309667Y-148405857D01*
X140728714Y-148786810D02*
X140843000Y-148824905D01*
X141033476Y-148824905D01*
X141109666Y-148786810D01*
X141147762Y-148748714D01*
X141185857Y-148672524D01*
X141185857Y-148596333D01*
X141147762Y-148520143D01*
X141109666Y-148482048D01*
X141033476Y-148443952D01*
X140881095Y-148405857D01*
X140804904Y-148367762D01*
X140766809Y-148329667D01*
X140728714Y-148253476D01*
X140728714Y-148177286D01*
X140766809Y-148101095D01*
X140804904Y-148063000D01*
X140881095Y-148024905D01*
X141071571Y-148024905D01*
X141185857Y-148063000D01*
X141833476Y-148786810D02*
X141757286Y-148824905D01*
X141604905Y-148824905D01*
X141528714Y-148786810D01*
X141490619Y-148710619D01*
X141490619Y-148405857D01*
X141528714Y-148329667D01*
X141604905Y-148291571D01*
X141757286Y-148291571D01*
X141833476Y-148329667D01*
X141871571Y-148405857D01*
X141871571Y-148482048D01*
X141490619Y-148558238D01*
X142214428Y-148824905D02*
X142214428Y-148291571D01*
X142214428Y-148443952D02*
X142252523Y-148367762D01*
X142290619Y-148329667D01*
X142366809Y-148291571D01*
X142443000Y-148291571D01*
X142709666Y-148824905D02*
X142709666Y-148291571D01*
X142709666Y-148024905D02*
X142671571Y-148063000D01*
X142709666Y-148101095D01*
X142747761Y-148063000D01*
X142709666Y-148024905D01*
X142709666Y-148101095D01*
X143433475Y-148824905D02*
X143433475Y-148405857D01*
X143395380Y-148329667D01*
X143319190Y-148291571D01*
X143166809Y-148291571D01*
X143090618Y-148329667D01*
X143433475Y-148786810D02*
X143357285Y-148824905D01*
X143166809Y-148824905D01*
X143090618Y-148786810D01*
X143052523Y-148710619D01*
X143052523Y-148634429D01*
X143090618Y-148558238D01*
X143166809Y-148520143D01*
X143357285Y-148520143D01*
X143433475Y-148482048D01*
X143928714Y-148824905D02*
X143852523Y-148786810D01*
X143814428Y-148710619D01*
X143814428Y-148024905D01*
M02*
